<svg xmlns="http://www.w3.org/2000/svg" width="800" height="800" viewBox="0 0 500 500">
<g>
<path d="M 248.69 277.21 C247.22,278.15 225.59,278.26 224.67,277.33 C223.83,276.50 223.79,268.71 224.61,266.58 C225.58,264.05 228.00,264.71 228.00,267.50 C228.00,269.96 228.13,270.00 236.00,270.00 L 244.00 270.00 L 244.00 264.56 C244.00,259.16 244.02,259.12 247.25,258.81 L 250.50 258.50 L 250.79 250.25 C251.03,243.32 251.35,241.98 252.79,241.85 C253.73,241.76 254.95,241.59 255.50,241.46 C256.05,241.34 257.06,241.18 257.75,241.12 C258.65,241.03 259.00,238.38 259.00,231.56 L 259.00 222.12 L 266.50 221.50 L 266.79 211.75 L 267.07 202.00 L 275.00 202.00 L 275.00 196.00 C275.00,192.70 275.39,190.00 275.88,190.00 C278.23,190.00 279.07,193.22 278.79,201.15 L 278.50 209.50 L 270.50 210.50 L 270.21 218.68 C269.97,225.45 269.63,226.93 268.22,227.20 C266.92,227.45 266.29,229.27 265.51,234.97 C264.59,241.73 264.27,242.48 262.00,243.00 C260.09,243.44 259.43,244.31 259.19,246.71 C259.02,248.44 258.24,250.39 257.44,251.05 C256.65,251.71 256.00,253.78 256.00,255.65 C256.00,258.31 255.48,259.25 253.61,259.96 C251.13,260.90 249.91,265.17 249.90,272.98 C249.89,274.89 249.35,276.79 248.69,277.21 ZM 306.42 268.39 C304.19,269.25 288.74,269.12 287.36,268.23 C284.22,266.21 282.74,250.70 285.58,249.61 C288.05,248.66 288.16,248.79 287.98,252.25 C287.88,254.04 287.84,256.75 287.90,258.29 L 288.00 261.08 L 297.25 260.79 L 306.50 260.50 L 307.50 252.50 L 316.25 252.21 L 325.00 251.92 L 325.00 244.00 L 343.00 244.00 L 343.00 240.06 C343.00,236.35 343.19,236.11 346.25,235.81 C349.33,235.52 349.53,235.25 350.00,230.78 C350.38,227.23 350.82,226.26 351.80,226.87 C352.72,227.44 353.01,229.83 352.80,235.09 C352.51,242.16 352.39,242.51 350.00,242.78 C343.69,243.49 343.13,243.87 342.81,247.75 L 342.50 251.50 L 334.53 251.80 C326.04,252.11 325.04,252.69 325.02,257.25 L 325.00 260.00 L 308.00 260.00 L 308.00 263.89 C308.00,266.52 307.49,267.98 306.42,268.39 ZM 196.00 252.07 L 196.00 260.00 L 185.97 260.00 C175.13,260.00 174.28,259.56 175.25,254.48 C175.72,252.02 175.66,252.00 168.36,252.00 C164.12,252.00 161.00,251.58 161.00,251.00 C161.00,250.45 160.11,250.00 159.03,250.00 C157.64,250.00 156.81,249.03 156.22,246.75 C155.52,244.03 154.82,243.42 151.94,243.00 L 148.50 242.50 L 148.50 235.08 C148.50,230.04 148.90,227.53 149.75,227.25 C150.61,226.96 151.00,228.10 151.00,230.94 C151.00,234.71 151.25,235.10 154.00,235.65 C156.48,236.15 157.00,236.74 157.00,239.07 C157.00,240.61 157.44,242.15 157.98,242.49 C158.52,242.82 162.68,243.36 167.23,243.68 L 175.50 244.26 L 175.50 251.50 L 185.75 251.78 ZM 183.55 231.75 C182.93,234.61 182.45,235.00 179.59,235.00 C175.53,235.00 175.00,234.47 175.00,230.39 C175.00,227.33 175.24,227.10 178.75,226.81 C182.16,226.53 182.53,226.21 182.81,223.29 L 183.12 220.09 L 189.81 219.79 L 196.50 219.50 L 197.12 212.08 L 213.50 211.50 L 213.80 205.74 C214.08,200.38 214.23,200.06 216.05,201.03 C218.86,202.53 218.83,210.47 216.00,212.23 C214.82,212.97 214.00,214.56 214.00,216.13 C214.00,219.42 212.57,220.00 204.42,220.00 C200.01,220.00 197.96,220.39 197.88,221.25 C197.82,221.94 197.66,222.95 197.54,223.50 C197.41,224.05 197.24,225.06 197.15,225.75 C197.05,226.57 195.19,227.01 191.75,227.02 C185.39,227.03 184.45,227.57 183.55,231.75 ZM 325.81 230.75 C325.51,234.37 325.36,234.51 321.50,234.69 C316.08,234.96 315.00,234.33 315.00,230.92 C315.00,227.85 314.23,227.48 308.69,227.92 C305.20,228.20 303.00,226.47 303.00,223.47 C303.00,221.58 302.31,221.06 299.06,220.51 C295.53,219.91 295.08,219.51 294.81,216.67 C294.60,214.54 294.03,213.60 293.06,213.81 C290.08,214.46 286.98,212.86 285.44,209.88 C284.56,208.17 284.32,207.08 284.92,207.45 C285.51,207.82 286.00,207.64 286.00,207.06 C286.00,206.48 285.63,206.00 285.17,206.00 C284.72,206.00 284.54,204.65 284.79,203.00 C285.03,201.35 285.64,200.00 286.14,200.00 C286.64,200.00 287.32,201.35 287.65,203.00 C288.17,205.61 288.68,206.00 291.55,206.00 C294.39,206.00 294.93,206.41 295.50,209.00 C296.09,211.70 296.54,212.00 300.02,212.00 C303.76,212.00 303.89,212.12 304.19,215.75 L 304.50 219.50 L 310.25 219.80 L 316.00 220.10 L 316.00 227.00 L 326.12 227.00 ZM 217.02 267.00 C216.32,268.12 213.65,268.59 206.54,268.85 L 205.87 268.87 C200.28,269.08 198.06,269.16 197.00,268.09 C196.26,267.34 196.09,266.02 195.73,263.79 L 195.29 261.07 L 204.40 260.79 L 213.50 260.50 L 213.80 254.75 C214.06,249.82 214.38,249.00 216.05,249.00 C217.83,249.00 218.00,249.73 217.98,257.25 C217.98,261.79 217.54,266.17 217.02,267.00 Z" fill="rgb(222,158,183)"/>
<path d="M 248.39 397.23 C249.03,397.66 248.54,397.98 247.22,397.98 C244.85,398.00 244.30,397.20 243.80,393.00 C243.54,390.83 242.94,390.46 239.25,390.19 L 235.00 389.89 L 235.00 381.00 L 229.06 381.00 C225.79,381.00 222.91,380.66 222.65,380.25 C222.40,379.84 224.51,379.63 227.34,379.78 C233.65,380.12 235.33,379.18 234.48,375.77 C233.94,373.63 233.10,373.14 229.10,372.61 C226.49,372.26 222.94,372.26 221.22,372.61 C216.14,373.62 213.42,372.44 212.37,368.77 C211.53,365.82 210.99,365.45 206.97,365.00 C202.63,364.51 202.49,364.39 202.19,360.75 C202.02,358.69 201.57,357.00 201.19,357.00 C200.81,357.00 200.43,355.82 200.35,354.37 C200.16,351.21 198.71,350.14 195.44,350.77 C192.30,351.37 192.18,354.74 195.25,355.97 C197.20,356.75 197.00,356.88 193.75,356.94 C190.13,357.00 190.00,356.88 190.00,353.55 C190.00,350.15 189.94,350.11 185.25,349.80 C180.55,349.50 180.50,349.46 180.19,345.75 C179.94,342.68 179.48,341.99 177.69,341.94 C175.54,341.87 175.55,341.85 177.85,340.93 C179.43,340.30 180.01,339.46 179.60,338.41 C179.27,337.55 179.00,336.48 179.00,336.05 C179.00,334.73 171.73,333.98 170.31,335.15 C169.39,335.92 169.00,335.93 169.00,335.17 C169.00,334.57 166.49,333.97 163.25,333.80 C157.51,333.50 157.50,333.49 157.00,330.00 C156.53,326.69 156.27,326.48 152.25,326.19 C148.05,325.89 148.00,325.84 148.00,322.11 C148.00,320.03 147.66,318.00 147.25,317.58 C146.51,316.84 146.37,316.36 146.12,313.62 C145.94,311.58 142.20,310.95 140.48,312.66 C139.32,313.82 138.97,313.86 138.88,312.82 C138.82,312.09 138.42,312.85 138.00,314.50 C137.24,317.49 137.24,317.48 137.12,313.75 L 137.00 310.00 L 124.13 310.00 L 123.81 306.79 C123.57,304.31 122.93,303.45 121.00,303.00 C119.21,302.59 118.41,301.65 118.18,299.71 C118.01,298.22 117.48,297.00 117.00,297.00 C116.53,297.00 116.00,296.08 115.82,294.96 C115.42,292.42 113.47,292.40 113.57,294.94 C113.62,296.41 113.20,296.64 111.57,296.04 C110.19,295.54 109.39,294.23 109.19,292.14 C108.91,289.35 108.52,289.00 105.69,288.98 C100.95,288.96 100.33,288.13 99.56,280.81 C98.79,273.50 98.06,272.43 93.34,271.70 C89.52,271.10 85.55,269.08 88.11,269.03 C89.32,269.01 89.60,268.32 89.21,266.25 C88.75,263.74 87.43,262.05 85.91,262.02 C85.25,262.00 83.00,266.61 83.00,267.97 C83.00,268.46 83.79,269.06 84.75,269.31 C86.07,269.65 85.94,269.80 84.25,269.88 C82.27,269.99 82.00,269.52 82.00,266.00 C82.00,263.80 81.52,262.00 80.93,262.00 C80.35,262.00 80.13,261.16 80.46,260.14 C81.47,256.94 80.05,254.96 76.89,255.21 C74.42,255.39 73.98,255.87 73.86,258.46 C73.74,261.08 73.63,260.94 73.11,257.50 C72.52,253.63 72.37,253.49 68.29,253.19 L 64.08 252.89 L 63.79 244.69 L 63.50 236.50 L 55.50 235.50 L 55.24 201.33 L 55.23 200.52 C55.01,172.41 54.96,165.93 57.66,164.44 C58.47,164.00 59.53,164.00 60.90,164.00 L 61.03 164.00 L 63.91 164.00 L 64.21 156.75 L 64.50 149.50 L 68.62 149.20 C73.39,148.85 73.96,149.87 73.99,158.75 L 74.00 164.00 L 77.93 164.00 C81.21,164.00 81.93,163.63 82.29,161.75 C82.67,159.82 82.75,159.89 82.86,162.25 C82.99,164.86 82.78,165.00 78.48,165.00 L 73.95 165.00 L 74.23 204.25 L 74.50 243.50 L 78.75 243.81 C82.67,244.09 83.00,244.33 83.00,246.94 C83.00,250.01 84.39,251.62 87.50,252.15 C89.99,252.58 90.96,253.86 90.98,256.71 C91.00,259.43 94.35,261.38 97.59,260.57 C99.62,260.06 100.00,259.35 100.00,256.06 C100.00,253.88 99.45,251.94 98.75,251.66 C98.00,251.36 98.20,251.13 99.25,251.08 C100.67,251.02 101.00,251.85 101.00,255.44 L 101.00 259.89 L 105.24 260.19 C108.59,260.44 109.54,260.92 109.78,262.50 C110.05,264.33 109.98,264.35 108.99,262.75 C107.35,260.12 101.40,260.37 100.68,263.11 C99.64,267.08 101.56,269.84 105.58,270.19 C108.98,270.48 109.29,270.77 109.53,273.88 C109.82,277.68 111.25,278.96 115.23,278.98 C117.39,279.00 118.09,279.57 118.56,281.75 C118.90,283.26 119.33,285.04 119.53,285.70 C119.78,286.51 122.69,286.90 128.57,286.90 C133.33,286.90 137.52,287.19 137.87,287.55 C138.21,287.91 136.12,288.05 133.20,287.85 L 127.91 287.50 L 128.50 295.50 L 137.90 296.11 L 138.50 306.50 L 143.50 307.00 C148.42,307.49 148.50,307.56 148.80,311.14 C149.07,314.30 149.51,314.85 152.18,315.39 C153.87,315.72 157.67,316.00 160.62,316.00 C165.82,316.00 166.00,316.09 166.02,318.75 C166.04,323.07 167.13,323.87 173.49,324.19 L 179.43 324.50 L 180.32 328.25 C180.80,330.31 181.72,332.06 182.35,332.13 C182.98,332.20 184.85,332.33 186.50,332.41 C189.08,332.54 189.63,333.08 190.41,336.23 C191.29,339.73 191.55,339.92 195.91,340.20 C200.28,340.49 200.51,340.65 200.81,343.75 C201.15,347.20 202.06,347.69 209.00,348.23 C212.17,348.47 212.55,348.83 213.00,352.00 C213.46,355.22 213.82,355.54 217.50,356.00 C221.18,356.46 221.54,356.78 222.00,360.00 L 222.50 363.50 L 228.50 363.50 C234.00,363.50 234.53,363.31 234.83,361.19 C235.36,357.43 233.31,356.00 227.38,356.00 C222.15,356.00 222.00,355.92 222.00,353.20 C222.00,349.52 220.34,348.00 216.30,348.00 C213.51,348.00 213.02,347.65 213.12,345.75 C213.20,344.14 213.36,343.99 213.68,345.20 C213.99,346.38 215.39,346.98 218.31,347.20 C222.36,347.49 222.51,347.63 222.81,351.20 L 223.12 354.91 L 229.31 355.20 L 235.50 355.50 L 236.12 360.00 C236.47,362.48 236.41,365.17 235.99,366.00 C235.58,366.83 235.62,368.51 236.09,369.75 C236.74,371.48 237.73,372.00 240.38,372.00 C242.28,372.00 244.04,371.44 244.29,370.75 C244.65,369.78 245.06,369.81 246.12,370.88 C247.19,371.94 247.22,372.35 246.25,372.71 C244.23,373.45 244.74,378.79 246.93,379.96 C251.81,382.57 255.46,379.67 254.49,373.97 C253.86,370.19 255.27,367.65 256.39,370.57 C256.81,371.68 258.06,372.03 260.74,371.81 C264.03,371.54 264.54,371.15 264.82,368.69 C265.00,367.14 264.69,365.33 264.13,364.66 C263.49,363.89 263.46,362.89 264.04,361.97 C264.81,360.75 264.97,360.80 264.98,362.30 C265.00,363.87 265.80,364.06 271.25,363.80 L 277.50 363.50 L 277.81 359.83 C278.07,356.67 277.79,356.09 275.81,355.69 C274.54,355.44 276.15,355.48 279.40,355.77 C286.05,356.38 288.10,355.00 287.24,350.50 C286.85,348.46 286.18,348.00 283.58,348.00 C281.83,348.00 279.86,348.54 279.20,349.20 C278.27,350.13 278.00,350.02 278.00,348.70 C278.00,347.36 278.93,347.00 282.44,347.00 C286.85,347.00 286.88,346.97 287.19,343.25 L 287.50 339.50 L 293.69 339.20 C299.82,338.91 299.88,338.88 300.19,335.78 C300.36,334.05 301.17,332.47 302.00,332.25 C303.01,331.98 303.12,332.12 302.34,332.68 C301.70,333.13 301.03,334.86 300.84,336.50 C300.51,339.44 300.38,339.51 294.19,339.80 L 287.89 340.10 L 288.19 343.80 L 288.50 347.50 L 297.75 347.79 C304.72,348.00 307.03,347.76 307.14,346.79 C307.50,343.53 307.67,341.20 307.83,337.42 L 308.00 333.33 L 324.50 331.50 L 324.81 327.82 C325.09,324.47 324.87,324.11 322.31,323.72 L 319.50 323.30 L 322.25 323.15 C324.77,323.01 325.00,322.66 325.00,319.00 L 325.00 315.00 L 330.25 315.15 L 335.50 315.30 L 331.00 315.90 C326.65,316.48 326.49,316.62 326.19,320.25 L 325.88 324.00 L 329.99 324.00 C335.18,324.00 340.00,321.59 340.00,318.99 C340.00,317.00 341.61,316.31 347.50,315.77 C350.07,315.54 350.54,315.04 350.81,312.32 C351.20,308.32 352.52,307.23 357.51,306.82 L 361.50 306.50 L 361.71 298.07 C361.83,293.43 362.14,289.07 362.41,288.38 C362.67,287.69 364.83,286.98 367.20,286.81 C371.49,286.50 371.50,286.49 371.81,282.25 C371.98,279.91 372.43,278.00 372.81,278.00 C373.20,278.00 373.35,280.02 373.16,282.50 L 372.80 287.00 L 376.82 287.00 C380.47,287.00 380.90,286.72 381.49,284.02 C381.85,282.39 381.86,280.59 381.52,280.02 C381.12,279.39 382.41,279.00 384.91,279.00 C389.31,279.00 391.00,277.22 391.00,272.57 C391.00,270.31 391.41,270.00 394.46,270.00 C398.48,270.00 400.54,267.30 399.55,263.35 C399.01,261.20 398.45,260.92 395.22,261.19 C391.73,261.48 391.46,261.74 390.86,265.50 L 390.21 269.50 L 390.50 260.50 L 394.70 260.20 C398.85,259.89 398.89,259.85 399.20,255.70 C399.50,251.54 399.54,251.50 403.70,251.20 C407.85,250.89 407.89,250.85 408.20,246.70 L 408.50 242.50 L 413.00 242.38 C415.84,242.30 416.33,242.41 414.32,242.68 C410.52,243.20 409.29,244.51 408.84,248.50 C408.54,251.17 408.07,251.55 404.50,252.00 C400.60,252.49 400.49,252.61 400.19,256.75 C399.89,260.98 399.90,261.00 403.32,261.00 C407.12,261.00 408.63,259.72 409.15,256.08 C409.40,254.35 410.49,253.34 413.00,252.50 C416.04,251.49 416.54,250.85 416.81,247.72 C417.10,244.25 417.28,244.10 421.31,243.80 L 425.50 243.50 L 425.77 204.25 L 426.05 165.00 L 421.52 165.00 C417.85,165.00 417.01,164.67 417.08,163.25 C417.13,162.20 417.36,162.00 417.66,162.75 C417.95,163.45 419.89,164.00 422.08,164.00 L 426.00 164.00 L 426.00 149.10 L 417.98 149.16 C413.35,149.19 409.37,148.73 408.58,148.07 C407.16,146.89 405.86,138.80 407.23,139.64 C408.14,140.20 408.23,136.44 407.38,133.28 C406.70,130.76 403.95,129.56 401.00,130.50 C399.45,130.99 399.00,132.01 399.00,135.00 C399.00,138.44 399.30,138.92 401.75,139.33 C404.36,139.77 404.35,139.78 401.50,139.64 C398.71,139.51 398.48,139.20 398.19,135.25 C397.98,132.26 397.44,131.00 396.37,131.00 C395.04,131.00 395.05,130.81 396.43,129.43 C397.29,128.56 398.00,126.55 398.00,124.95 L 398.00 122.05 L 354.05 122.02 C314.63,121.99 310.01,122.16 309.20,123.60 C308.37,125.09 308.25,125.09 307.68,123.61 C307.18,122.32 305.50,122.00 299.11,122.00 C288.99,122.00 288.00,121.60 288.00,117.50 C288.00,113.38 288.97,113.00 299.45,113.00 L 307.74 113.00 L 309.02 105.00 L 374.98 105.00 L 376.26 113.00 L 385.56 113.00 C395.93,113.00 398.00,114.00 398.00,119.02 C398.00,121.74 398.26,121.91 402.75,122.20 C407.44,122.50 407.50,122.55 407.81,126.20 C408.10,129.76 408.26,129.90 412.31,130.20 C416.47,130.50 416.50,130.53 416.81,134.75 C417.11,138.94 417.17,139.00 420.86,139.00 C425.59,139.00 427.00,140.42 427.00,145.20 C427.00,148.97 427.04,149.00 431.00,149.00 L 435.00 149.00 L 435.00 153.38 C435.00,155.78 435.28,159.16 435.63,160.88 C436.17,163.59 436.78,164.10 440.13,164.64 L 444.00 165.26 L 444.21 195.13 C444.33,211.56 444.44,227.36 444.46,230.25 L 444.50 235.50 L 436.50 236.50 L 436.21 244.75 C435.93,252.73 435.84,253.00 433.46,253.12 C432.11,253.19 430.55,253.36 430.00,253.50 C429.45,253.64 428.55,253.81 428.00,253.88 C427.45,253.94 426.93,255.69 426.85,257.75 C426.73,260.79 426.62,260.98 426.28,258.73 C426.05,257.21 425.44,256.23 424.93,256.54 C424.42,256.86 424.00,256.64 424.00,256.05 C424.00,255.35 423.23,255.42 421.75,256.24 C418.69,257.96 417.93,259.21 419.11,260.63 C419.76,261.42 419.75,262.04 419.05,262.47 C418.47,262.83 418.00,264.64 418.00,266.50 C418.00,269.77 417.85,269.90 413.75,270.19 C410.04,270.46 409.46,270.82 409.20,273.04 C408.94,275.30 408.53,275.54 405.54,275.19 C402.91,274.89 401.93,275.26 401.05,276.90 C400.00,278.87 400.18,279.00 404.02,279.00 C406.50,279.00 407.87,278.60 407.50,278.00 C407.16,277.45 407.36,277.00 407.94,277.00 C408.52,277.00 409.00,277.67 409.00,278.50 C409.00,279.61 407.83,280.00 404.50,280.00 L 400.00 280.00 L 400.00 284.00 C400.00,287.27 399.65,288.00 398.09,288.00 C396.68,288.00 396.32,287.48 396.71,286.00 C397.11,284.47 396.74,284.00 395.12,284.00 C393.71,284.00 393.00,284.63 393.00,285.89 C393.00,286.93 392.33,288.05 391.50,288.36 C390.67,288.68 390.00,289.85 390.00,290.97 C390.00,293.27 389.62,293.40 387.03,292.02 C385.30,291.09 383.90,292.41 383.59,295.29 C383.54,295.72 382.98,296.39 382.35,296.79 C381.72,297.18 381.04,298.62 380.85,300.00 C380.62,301.67 379.77,302.60 378.31,302.81 C376.66,303.05 376.04,303.91 375.81,306.31 C375.51,309.44 375.39,309.51 369.50,310.00 C363.58,310.49 363.50,310.54 363.19,313.75 C362.97,316.05 362.38,316.98 361.19,316.92 C360.15,316.87 359.98,316.65 360.75,316.34 C361.44,316.06 362.00,315.39 362.00,314.86 C362.00,314.32 361.55,314.16 361.00,314.50 C360.45,314.84 360.00,314.64 360.00,314.06 C360.00,312.50 357.37,312.77 355.64,314.50 C354.82,315.33 353.71,316.00 353.18,316.00 C352.65,316.00 352.24,316.56 352.27,317.25 C352.29,317.94 352.24,320.16 352.16,322.19 C352.00,325.79 351.89,325.89 347.75,326.19 C343.73,326.48 343.47,326.69 343.00,330.00 L 342.50 333.50 L 335.25 333.79 C329.78,334.02 327.97,334.44 327.88,335.54 C327.81,336.34 327.71,337.79 327.66,338.75 C327.53,341.18 326.10,341.97 321.81,341.98 C318.27,342.00 318.11,342.15 317.81,345.75 C317.50,349.47 317.46,349.50 313.08,349.50 C310.44,349.50 308.50,350.00 308.25,350.75 C308.00,351.50 306.06,352.00 303.42,352.00 C300.31,352.00 299.00,352.41 299.00,353.39 C299.00,355.06 301.02,355.94 305.33,356.16 C307.19,356.26 306.23,356.57 303.00,356.91 C297.62,357.49 297.49,357.57 297.00,361.00 C296.53,364.31 296.27,364.52 292.25,364.81 C288.16,365.10 288.00,365.24 288.00,368.45 C288.00,372.07 286.76,373.00 281.92,373.00 C279.99,373.00 279.00,373.51 279.00,374.50 C279.00,375.33 278.55,376.00 278.00,376.00 C277.45,376.00 277.11,375.44 277.25,374.75 C277.56,373.22 268.18,373.60 266.25,375.21 C264.55,376.62 264.67,378.00 266.50,378.00 C267.33,378.00 268.01,378.56 268.02,379.25 C268.03,380.08 268.35,380.00 269.00,379.00 C269.65,378.00 269.97,377.92 269.98,378.75 C270.01,380.74 276.72,380.32 277.92,378.25 C278.82,376.70 278.94,376.69 278.97,378.14 C279.01,380.28 276.97,381.00 270.89,381.00 C266.23,381.00 265.92,381.16 265.36,383.93 C264.78,386.86 264.77,386.86 262.70,384.93 C259.12,381.60 256.00,382.87 256.00,387.68 C256.00,388.87 256.98,389.12 260.50,388.84 C262.98,388.65 265.00,388.83 265.00,389.24 C265.00,389.66 262.98,390.00 260.50,390.00 C256.05,390.00 256.00,390.04 256.00,393.39 C256.00,395.26 255.43,397.00 254.74,397.27 C253.82,397.62 253.57,396.72 253.83,393.98 C254.13,390.84 253.83,390.08 252.10,389.53 C248.23,388.30 246.30,389.67 246.81,393.26 C247.07,395.04 247.78,396.83 248.39,397.23 ZM 259.00 157.00 L 259.00 165.00 L 240.00 165.00 L 240.00 157.00 L 235.50 157.00 C231.88,157.00 231.00,156.66 231.02,155.25 C231.03,154.09 231.28,153.90 231.78,154.68 C232.19,155.32 234.32,156.00 236.51,156.18 C238.44,156.33 239.44,156.45 240.00,157.00 C240.55,157.54 240.66,158.49 240.81,160.29 L 241.13 164.08 L 257.50 163.50 L 257.83 160.61 C258.27,156.73 256.82,156.03 248.25,156.02 C241.02,156.00 241.00,155.99 240.98,153.25 C240.96,148.84 239.71,147.77 234.88,148.03 C232.47,148.16 229.38,148.16 228.00,148.03 L 225.50 147.80 L 228.00 147.11 C231.14,146.24 231.97,142.18 229.40,140.31 C227.02,138.57 223.53,138.65 222.01,140.49 C220.41,142.42 221.49,146.71 223.75,147.36 C224.76,147.65 224.44,147.79 223.00,147.68 C220.88,147.53 220.45,146.94 220.19,143.80 C219.89,140.16 219.82,140.10 215.19,139.80 L 210.50 139.50 L 210.19 135.25 C210.02,132.91 209.45,131.00 208.92,131.00 C208.39,131.00 208.62,129.98 209.44,128.73 C210.29,127.43 210.67,125.47 210.33,124.17 C209.76,121.97 209.39,121.90 199.63,122.08 L 189.53 122.27 L 189.86 118.38 C190.04,116.25 190.40,114.16 190.66,113.75 C191.45,112.46 207.48,112.89 209.25,114.25 C210.14,114.94 211.02,116.85 211.19,118.50 C211.47,121.25 211.87,121.54 216.00,122.00 C220.26,122.47 220.53,122.69 221.00,126.00 C221.47,129.31 221.74,129.53 226.00,130.00 C230.39,130.49 230.51,130.59 231.00,134.50 C231.49,138.41 231.61,138.51 236.00,139.00 C240.26,139.47 240.53,139.69 241.00,143.00 L 241.50 146.50 L 257.50 146.50 L 258.00 143.00 C258.47,139.69 258.73,139.48 262.75,139.19 C266.81,138.90 267.00,138.74 267.00,135.64 C267.00,131.44 268.55,130.00 273.07,130.00 C276.59,130.00 276.77,129.83 277.39,125.95 L 278.04 121.89 L 287.50 122.50 L 287.82 130.40 C288.18,139.28 287.75,139.96 281.75,139.98 C278.13,140.00 278.00,140.12 278.00,143.53 C278.00,147.81 277.45,148.06 267.42,148.31 C259.97,148.49 259.56,148.62 258.96,151.00 C257.99,154.90 258.88,156.00 263.02,156.00 C265.14,156.00 267.06,155.44 267.34,154.75 C267.64,154.00 267.87,154.20 267.92,155.25 C267.99,156.67 267.15,157.00 263.50,157.00 ZM 126.60 121.85 C126.20,122.48 125.80,122.90 125.69,122.79 C125.59,122.67 120.48,122.43 114.34,122.25 C102.23,121.91 101.50,121.53 102.88,116.33 L 103.64 113.50 L 113.37 113.21 C119.90,113.02 123.21,112.53 123.46,111.71 C123.67,111.05 124.11,109.26 124.44,107.74 L 125.05 104.97 L 189.50 105.50 L 190.12 113.00 L 158.18 113.00 C132.51,113.00 126.02,113.27 125.12,114.36 C123.75,116.01 124.79,122.25 126.28,121.33 C126.87,120.96 127.01,121.18 126.60,121.85 ZM 342.00 121.02 C360.42,121.31 375.50,121.64 375.50,121.77 C375.50,121.77 375.50,121.78 375.50,121.78 C375.51,121.78 375.64,119.90 375.79,117.50 L 376.08 113.00 L 307.88 113.00 L 308.50 120.50 ZM 64.86 225.75 C65.06,226.47 66.85,227.00 69.11,227.00 L 73.00 227.00 L 73.00 165.00 L 65.06 165.00 L 64.78 194.75 C64.63,211.11 64.66,225.06 64.86,225.75 ZM 427.71 226.38 C428.11,226.77 429.79,226.96 431.46,226.80 L 434.50 226.50 L 434.50 165.50 L 427.00 164.88 L 427.00 195.27 C427.00,211.99 427.32,225.99 427.71,226.38 ZM 84.82 148.97 C83.90,148.99 82.94,149.79 82.69,150.75 C82.30,152.24 82.21,152.25 82.12,150.87 C82.00,149.18 79.22,148.04 75.19,148.01 C73.10,148.00 72.91,147.61 73.19,143.75 C73.50,139.52 73.52,139.50 77.75,139.19 C82.13,138.88 82.30,138.66 83.22,132.50 C83.45,130.99 84.50,130.38 87.51,130.00 C91.18,129.54 91.54,129.22 92.00,126.00 C92.49,122.59 92.62,122.50 97.00,122.50 C101.38,122.50 101.51,122.59 102.00,126.00 C102.44,129.08 102.92,129.57 106.00,130.12 L 109.50 130.74 L 105.75 130.87 C102.30,130.99 102.00,131.24 102.00,133.92 C102.00,138.93 101.11,140.00 96.95,140.00 C93.25,140.00 93.11,140.12 92.81,143.74 C92.57,146.63 92.04,147.53 90.50,147.68 C88.94,147.84 88.89,147.77 90.25,147.37 C91.46,147.01 92.00,145.83 92.00,143.54 C92.00,140.57 91.67,140.18 88.75,139.75 C86.96,139.48 84.94,139.48 84.25,139.74 C82.37,140.45 82.73,146.08 84.75,147.61 C86.35,148.82 86.36,148.94 84.82,148.97 ZM 278.00 130.00 L 278.00 139.11 L 282.25 138.81 C286.48,138.50 286.50,138.48 286.81,134.25 L 287.11 130.00 ZM 212.25 138.34 C215.10,139.49 219.80,138.96 220.39,137.42 C222.25,132.59 218.84,129.07 213.57,130.39 C211.44,130.93 211.00,131.62 211.00,134.44 C211.00,136.30 211.56,138.06 212.25,138.34 ZM 371.44 305.75 C370.84,308.59 371.01,309.00 372.81,309.00 C374.41,309.00 374.94,308.26 375.19,305.75 C375.43,303.26 376.03,302.43 377.75,302.18 C379.50,301.93 380.00,301.21 380.00,298.93 C380.00,296.27 379.69,296.00 376.63,296.00 C373.61,296.00 373.20,296.34 372.70,299.25 C372.38,301.04 371.82,303.96 371.44,305.75 ZM 409.25 146.85 C409.93,147.53 411.84,147.96 413.50,147.80 C416.17,147.53 416.53,147.10 416.81,143.83 C417.06,140.83 416.73,140.05 414.98,139.49 C411.09,138.26 408.00,139.73 408.00,142.82 C408.00,144.35 408.56,146.16 409.25,146.85 ZM 363.71 295.38 C364.11,295.77 366.02,295.96 367.96,295.80 C371.27,295.52 371.52,295.25 371.81,291.75 L 372.12 288.00 L 367.56 288.00 C363.06,288.00 363.00,288.04 363.00,291.33 C363.00,293.17 363.32,294.99 363.71,295.38 ZM 92.78 137.84 C93.29,139.36 98.27,139.33 99.80,137.80 C101.78,135.82 101.28,131.22 99.00,130.50 C95.75,129.47 93.25,130.83 92.81,133.87 C92.58,135.42 92.57,137.20 92.78,137.84 ZM 268.00 143.62 C268.00,147.11 268.00,147.11 272.25,146.81 C276.22,146.52 276.52,146.29 276.81,143.31 C277.09,140.37 276.84,140.06 273.62,139.46 C269.06,138.60 268.00,139.38 268.00,143.62 ZM 123.55 302.69 C125.91,304.13 127.48,303.83 127.57,301.92 C127.76,297.67 123.44,295.42 120.58,298.28 C119.21,299.64 119.67,300.32 123.55,302.69 ZM 289.40 361.25 C289.31,363.69 289.66,364.00 292.44,364.00 C295.22,364.00 295.60,363.65 295.81,360.94 C296.03,358.04 295.86,357.89 292.77,358.19 C289.98,358.45 289.49,358.90 289.40,361.25 ZM 182.61 347.42 C182.97,348.36 184.39,349.00 186.11,349.00 C188.32,349.00 189.00,348.54 189.00,347.04 C189.00,344.74 185.84,342.74 183.57,343.61 C181.86,344.27 181.68,345.00 182.61,347.42 ZM 280.00 369.02 C280.00,370.54 280.68,371.00 282.89,371.00 C285.93,371.00 287.85,368.45 286.11,366.71 C284.50,365.10 280.00,366.80 280.00,369.02 ZM 330.40 332.27 C328.81,332.51 330.31,332.77 333.75,332.85 C339.38,332.99 340.00,332.80 340.00,331.00 C340.00,328.62 336.87,328.28 334.72,330.42 C333.94,331.20 332.00,332.03 330.40,332.27 ZM 436.62 233.46 C437.14,234.82 437.45,234.89 438.12,233.83 C438.82,232.74 438.97,232.74 438.98,233.82 C439.00,234.80 439.41,234.73 440.60,233.55 C442.39,231.76 441.81,229.00 439.65,229.00 C437.57,229.00 435.87,231.50 436.62,233.46 ZM 238.15 387.40 C238.89,388.24 240.62,388.93 242.00,388.95 C243.74,388.96 244.10,388.71 243.16,388.12 C242.43,387.66 241.87,386.99 241.91,386.64 C242.22,384.33 241.80,383.93 239.75,384.56 C236.69,385.50 236.60,385.65 238.15,387.40 ZM 103.91 286.39 C105.62,288.46 108.83,288.07 108.26,285.87 C107.70,283.73 105.01,282.59 103.68,283.92 C103.02,284.58 103.10,285.42 103.91,286.39 ZM 196.61 239.43 C196.91,240.21 196.96,241.90 196.72,243.18 C196.31,245.32 196.26,245.34 196.14,243.37 C195.97,240.81 194.36,239.35 191.00,238.73 C189.17,238.40 189.52,238.24 192.28,238.14 C194.73,238.05 196.26,238.50 196.61,239.43 ZM 205.62 361.44 C206.07,362.63 206.64,362.73 208.21,361.89 C209.60,361.15 209.89,360.49 209.17,359.77 C207.70,358.30 204.91,359.60 205.62,361.44 ZM 252.42 202.15 C252.59,202.34 252.13,203.85 251.40,205.50 L 250.09 208.50 L 250.05 205.81 C250.01,203.49 251.55,201.11 252.42,202.15 ZM 336.98 307.75 C336.98,308.16 336.53,309.17 336.00,310.00 C335.22,311.21 335.03,311.07 335.02,309.25 C335.01,308.01 335.45,307.00 336.00,307.00 C336.55,307.00 336.99,307.34 336.98,307.75 Z" fill="rgb(248,226,238)"/>
<path d="M 259.00 157.00 L 263.50 157.00 C267.15,157.00 267.99,156.67 267.92,155.25 C267.87,154.20 267.64,154.00 267.34,154.75 C267.26,154.95 267.04,155.14 266.71,155.31 C267.14,154.93 267.37,154.36 267.59,153.50 C268.35,150.48 267.95,148.87 266.11,148.34 C266.52,148.33 266.96,148.32 267.42,148.31 C277.45,148.06 278.00,147.81 278.00,143.53 C278.00,140.12 278.13,140.00 281.75,139.98 C287.75,139.96 288.18,139.28 287.82,130.40 L 287.55 123.65 C287.59,123.76 287.62,123.88 287.63,124.00 C287.71,124.82 287.82,126.51 287.88,127.75 C288.00,129.92 288.33,130.00 297.88,130.00 C306.53,130.00 307.83,129.78 308.23,128.21 C308.49,127.23 308.33,125.43 307.88,124.21 C307.63,123.52 307.37,123.04 306.86,122.71 C307.29,122.94 307.54,123.23 307.68,123.61 C308.25,125.09 308.37,125.09 309.20,123.60 C310.01,122.16 314.63,121.99 354.05,122.02 L 373.47 122.04 C375.07,122.28 375.57,122.59 375.60,123.00 C375.65,123.82 375.76,125.74 375.85,127.25 L 376.00 130.00 L 386.39 130.00 C392.53,130.00 395.43,129.93 396.79,128.98 C396.68,129.15 396.55,129.30 396.43,129.43 C395.05,130.81 395.04,131.00 396.37,131.00 C397.44,131.00 397.98,132.26 398.19,135.25 C398.48,139.20 398.71,139.51 401.50,139.64 C404.35,139.78 404.36,139.77 401.75,139.33 C401.16,139.23 400.69,139.13 400.32,138.98 C400.69,139.07 401.15,139.12 401.75,139.15 C403.26,139.24 405.17,139.35 406.00,139.40 C406.28,139.42 406.55,139.56 406.79,139.80 C406.25,141.02 407.37,147.06 408.58,148.07 C409.37,148.73 413.35,149.19 417.98,149.16 L 422.66 149.13 L 421.75 149.19 L 417.50 149.50 L 417.19 154.43 C417.02,157.15 417.14,160.41 417.46,161.68 C417.65,162.44 417.87,162.95 418.28,163.30 C417.96,163.14 417.74,162.95 417.66,162.75 C417.36,162.00 417.13,162.20 417.08,163.25 C417.01,164.67 417.85,165.00 421.52,165.00 L 426.05 165.00 L 425.77 204.25 L 425.50 243.50 L 425.50 228.50 L 421.89 228.20 C418.54,227.92 418.22,228.13 417.64,231.07 C417.29,232.82 417.00,236.22 417.00,238.62 C417.00,242.78 416.85,243.00 414.12,243.00 C412.95,243.00 412.01,243.17 411.27,243.56 C412.04,243.13 413.03,242.86 414.32,242.68 C416.33,242.41 415.84,242.30 413.00,242.38 L 408.50 242.50 L 408.20 246.70 C407.89,250.85 407.85,250.89 403.70,251.20 C399.54,251.50 399.50,251.54 399.20,255.70 C398.89,259.85 398.85,259.89 394.70,260.20 L 390.50 260.50 L 390.24 268.61 C389.79,268.94 389.11,269.00 388.02,269.00 C383.07,269.00 382.00,269.90 382.00,274.05 C382.00,277.85 381.96,277.89 377.75,278.19 C373.52,278.50 373.50,278.52 373.19,282.75 L 372.89 287.00 L 372.80 287.00 L 373.16 282.50 C373.35,280.02 373.20,278.00 372.81,278.00 C372.43,278.00 371.98,279.91 371.81,282.25 C371.50,286.49 371.49,286.50 367.20,286.81 C364.83,286.98 362.67,287.69 362.41,288.38 C362.14,289.07 361.83,293.43 361.71,298.07 L 361.50 306.50 L 361.50 301.50 C361.50,296.74 361.36,296.48 358.63,296.17 C353.64,295.60 351.16,296.74 350.82,299.75 C350.57,301.92 349.91,302.57 347.71,302.82 C346.18,303.00 344.39,304.01 343.72,305.07 C343.04,306.17 341.40,307.00 339.92,307.00 C338.68,307.00 337.55,307.66 336.68,308.74 C336.86,308.32 336.98,307.96 336.98,307.75 C336.99,307.34 336.55,307.00 336.00,307.00 C335.45,307.00 335.01,308.01 335.02,309.25 C335.03,310.79 335.16,311.13 335.67,310.47 C335.25,311.50 335.00,312.71 335.00,313.99 C335.00,314.55 334.88,314.96 334.57,315.27 L 330.25 315.15 L 325.00 315.00 L 325.00 319.00 C325.00,322.66 324.77,323.01 322.25,323.15 L 319.50 323.30 L 322.31 323.72 C322.86,323.81 323.31,323.89 323.66,324.00 L 318.14 324.00 C309.00,324.00 308.00,324.45 308.00,328.61 C308.00,331.45 307.64,332.00 305.75,332.02 C303.51,332.03 302.23,332.54 301.52,333.91 C301.77,333.33 302.06,332.88 302.34,332.68 C303.12,332.12 303.01,331.98 302.00,332.25 C301.17,332.47 300.36,334.05 300.19,335.78 C299.88,338.88 299.82,338.91 293.69,339.20 L 287.50 339.50 L 287.19 343.25 C286.88,346.97 286.85,347.00 282.44,347.00 C278.93,347.00 278.00,347.36 278.00,348.70 C278.00,350.02 278.27,350.13 279.20,349.20 C279.44,348.96 279.85,348.74 280.36,348.55 C278.73,349.28 278.00,350.78 278.00,353.20 C278.00,354.54 277.95,355.24 277.32,355.60 C275.53,355.48 274.85,355.50 275.81,355.69 C276.06,355.75 276.29,355.80 276.50,355.86 C275.77,355.99 274.69,356.00 273.08,356.00 C266.10,356.00 265.00,356.63 265.00,360.65 L 265.00 362.60 C264.99,362.51 264.99,362.41 264.98,362.30 C264.97,360.80 264.81,360.75 264.04,361.97 C263.46,362.89 263.49,363.89 264.13,364.66 C264.69,365.33 265.00,367.14 264.82,368.69 C264.69,369.84 264.51,370.54 264.01,370.98 C264.45,370.47 264.50,369.60 264.50,368.00 C264.50,364.61 264.37,364.49 260.33,364.20 C256.89,363.95 256.06,364.24 255.53,365.91 C255.23,366.86 255.34,368.37 255.78,369.51 C254.85,368.61 254.01,370.76 254.46,373.77 C254.44,373.71 254.42,373.64 254.39,373.58 C253.78,371.98 249.58,371.45 246.58,372.61 C245.44,373.05 244.93,374.70 245.03,376.35 C244.84,374.72 245.20,373.09 246.25,372.71 C247.22,372.35 247.19,371.94 246.12,370.88 C245.06,369.81 244.65,369.78 244.29,370.75 C244.22,370.96 244.00,371.15 243.69,371.32 C244.12,370.94 244.37,370.37 244.59,369.50 C245.58,365.54 244.45,364.00 240.57,364.00 C237.95,364.00 236.30,364.94 235.81,366.55 C235.85,366.34 235.91,366.15 235.99,366.00 C236.41,365.17 236.47,362.48 236.12,360.00 L 235.50 355.50 L 229.31 355.20 L 223.12 354.91 L 222.81 351.20 C222.51,347.63 222.36,347.49 218.31,347.20 C215.39,346.98 213.99,346.38 213.68,345.20 C213.50,344.53 213.38,344.28 213.28,344.45 C213.65,341.09 212.33,340.20 206.98,339.82 C202.72,339.52 202.45,339.31 201.57,335.75 C200.66,332.06 200.57,332.00 195.82,332.00 C191.21,332.00 191.00,331.88 191.00,329.20 C191.00,325.42 189.32,324.00 184.86,324.00 C181.26,324.00 181.11,323.86 180.81,320.25 L 180.50 316.50 L 167.50 315.50 L 167.00 311.50 C166.51,307.60 166.39,307.49 162.03,307.00 L 157.55 306.50 L 157.18 302.00 C156.74,296.60 155.72,295.75 150.59,296.50 C148.44,296.82 144.73,296.78 142.34,296.42 C138.09,295.79 138.00,295.69 138.00,291.94 L 138.00 288.11 L 135.37 287.94 C137.08,287.96 138.12,287.81 137.87,287.55 C137.52,287.19 133.33,286.90 128.57,286.90 L 128.46 286.90 L 128.20 282.80 L 127.89 278.11 L 123.70 277.80 C119.63,277.51 119.49,277.38 119.19,273.75 C118.92,270.47 118.54,269.98 116.19,269.85 C114.71,269.76 112.84,269.65 112.04,269.59 C111.24,269.54 110.30,268.11 109.95,266.41 C109.46,264.00 109.00,262.64 108.16,261.88 C108.50,262.12 108.78,262.41 108.99,262.75 C109.98,264.35 110.05,264.33 109.78,262.50 C109.54,260.92 108.59,260.44 105.24,260.19 L 101.00 259.89 L 101.00 255.44 C101.00,251.85 100.67,251.02 99.25,251.08 C98.20,251.13 98.00,251.36 98.75,251.66 C98.95,251.74 99.14,251.96 99.30,252.28 C98.95,251.88 98.44,251.65 97.69,251.46 C96.41,251.14 94.73,251.02 93.95,251.19 C92.97,251.40 92.37,250.27 92.01,247.50 C91.54,243.78 91.26,243.48 88.01,243.17 C83.55,242.75 83.03,241.83 83.02,234.36 L 83.00 228.22 L 79.37 227.54 C77.37,227.17 75.33,227.27 74.82,227.78 C74.65,227.95 74.51,228.48 74.40,229.26 L 74.23 204.25 L 73.95 165.00 L 78.48 165.00 C82.78,165.00 82.99,164.86 82.86,162.25 C82.75,159.89 82.67,159.82 82.29,161.75 C82.14,162.56 81.92,163.09 81.45,163.43 C82.03,162.87 82.21,161.77 82.54,159.59 C83.07,156.07 83.07,153.49 82.42,151.68 C82.49,151.50 82.58,151.19 82.69,150.75 C82.94,149.79 83.90,148.99 84.82,148.97 C86.36,148.94 86.35,148.82 84.75,147.61 C84.69,147.56 84.63,147.52 84.58,147.46 C86.17,148.05 87.34,148.02 89.75,147.37 C90.85,147.07 91.46,146.63 91.75,145.70 C91.49,146.62 91.00,147.15 90.25,147.37 C88.89,147.77 88.94,147.84 90.50,147.68 C92.04,147.53 92.57,146.63 92.81,143.74 C93.11,140.12 93.25,140.00 96.95,140.00 C101.11,140.00 102.00,138.93 102.00,133.92 C102.00,131.24 102.30,130.99 105.75,130.87 L 109.50 130.74 L 106.00 130.12 C105.02,129.95 104.31,129.78 103.77,129.53 L 113.69 129.78 L 124.88 130.06 L 125.19 125.99 L 125.44 122.74 C125.59,122.76 125.68,122.77 125.69,122.79 C125.79,122.90 126.18,122.50 126.56,121.90 L 157.50 121.70 L 189.50 121.50 L 189.80 119.12 L 189.53 122.27 L 194.12 122.18 C189.79,122.59 189.49,123.84 190.41,127.50 C191.02,129.93 191.28,130.00 199.98,130.00 C206.13,130.00 208.26,129.83 209.30,128.95 C208.60,130.10 208.42,131.00 208.92,131.00 C209.45,131.00 210.02,132.91 210.19,135.25 L 210.50 139.50 L 215.19 139.80 C219.82,140.10 219.89,140.16 220.19,143.80 C220.45,146.94 220.88,147.53 223.00,147.68 C224.44,147.79 224.76,147.65 223.75,147.36 C222.66,147.04 221.84,145.88 221.47,144.53 C221.84,145.86 222.66,147.00 223.75,147.23 C227.16,147.97 230.49,146.45 230.84,143.99 C231.14,141.97 229.75,140.31 227.92,139.50 C228.44,139.70 228.94,139.97 229.40,140.31 C231.97,142.18 231.14,146.24 228.00,147.11 L 225.50 147.80 L 228.00 148.03 C229.33,148.16 232.26,148.16 234.63,148.05 C231.33,148.32 230.49,149.83 231.40,153.44 C231.56,154.09 231.75,154.58 232.05,154.95 C231.93,154.86 231.84,154.77 231.78,154.68 C231.28,153.90 231.03,154.09 231.02,155.25 C231.00,156.66 231.88,157.00 235.50,157.00 L 240.00 157.00 L 240.00 157.00 L 240.00 165.00 L 259.00 165.00 ZM 183.55 231.75 C184.45,227.57 185.39,227.03 191.75,227.02 C195.19,227.01 197.05,226.57 197.15,225.75 C197.24,225.06 197.41,224.05 197.54,223.50 C197.66,222.95 197.82,221.94 197.88,221.25 C197.96,220.39 200.01,220.00 204.42,220.00 C212.57,220.00 214.00,219.42 214.00,216.13 C214.00,214.56 214.82,212.97 216.00,212.23 C218.83,210.47 218.86,202.53 216.05,201.03 C214.23,200.06 214.08,200.38 213.80,205.74 L 213.50 211.50 L 197.12 212.08 L 205.21 211.79 L 213.31 211.50 L 213.51 203.33 C213.52,202.98 213.52,202.65 213.53,202.32 C213.63,198.41 213.68,196.40 212.70,195.42 C211.66,194.38 209.45,194.50 204.91,194.75 C204.56,194.77 204.19,194.79 203.81,194.81 L 197.11 195.17 L 196.81 198.33 C196.51,201.40 196.34,201.51 191.25,201.80 C186.61,202.07 186.00,202.36 185.98,204.30 C185.96,207.77 184.77,208.83 180.49,209.18 C176.96,209.46 176.39,209.88 175.54,212.75 C174.67,215.72 174.24,216.00 170.54,216.02 C165.57,216.03 164.30,216.79 163.85,220.00 C163.52,222.32 163.06,222.52 157.25,222.80 L 151.00 223.10 L 151.00 229.07 C151.00,232.58 151.02,234.04 151.68,234.77 C151.08,234.16 151.00,233.11 151.00,230.94 C151.00,228.10 150.61,226.96 149.75,227.25 C148.90,227.53 148.50,230.04 148.50,235.08 L 148.50 242.50 L 151.94 243.00 C154.82,243.42 155.52,244.03 156.22,246.75 C156.81,249.03 157.64,250.00 159.03,250.00 C160.11,250.00 161.00,250.45 161.00,251.00 C161.00,251.58 164.12,252.00 168.36,252.00 C175.66,252.00 175.72,252.02 175.25,254.48 C174.28,259.56 175.13,260.00 185.97,260.00 L 196.00 260.00 L 196.00 255.87 C196.00,257.96 196.32,259.98 196.70,260.37 C197.00,260.67 199.43,260.85 202.57,260.84 L 195.29 261.07 L 195.73 263.79 C196.09,266.02 196.26,267.34 197.00,268.09 C198.06,269.16 200.28,269.08 205.87,268.87 L 206.54 268.85 C213.65,268.59 216.32,268.12 217.02,267.00 C217.54,266.17 217.98,261.79 217.98,257.25 C218.00,249.73 217.83,249.00 216.05,249.00 C214.38,249.00 214.06,249.82 213.80,254.75 L 213.50 260.50 L 213.80 254.16 C214.20,245.61 213.55,245.00 203.88,245.00 C199.21,245.00 197.26,244.90 196.48,244.35 C196.54,244.08 196.62,243.69 196.72,243.18 C196.96,241.90 196.91,240.21 196.61,239.43 C196.26,238.50 194.73,238.05 192.28,238.14 C189.52,238.24 189.17,238.40 191.00,238.73 C192.49,239.01 193.63,239.44 194.46,240.07 C193.36,239.34 191.66,239.00 189.30,239.00 C185.71,239.00 185.00,238.68 185.00,237.05 C185.00,235.61 184.34,235.15 181.36,234.89 C182.70,234.64 183.09,233.87 183.55,231.75 ZM 306.42 268.39 C307.49,267.98 308.00,266.52 308.00,263.89 L 308.00 260.00 L 325.00 260.00 L 325.02 257.25 C325.04,252.69 326.04,252.11 334.53,251.80 L 342.50 251.50 L 342.81 247.75 C343.13,243.87 343.69,243.49 350.00,242.78 C352.39,242.51 352.51,242.16 352.80,235.09 C353.01,229.83 352.72,227.44 351.80,226.87 C350.82,226.26 350.38,227.23 350.00,230.78 C349.98,231.01 349.95,231.23 349.93,231.44 L 349.80 228.69 L 349.50 222.50 L 345.50 222.00 C342.03,221.57 341.50,221.17 341.50,219.00 C341.50,216.56 341.31,216.49 333.25,216.21 L 325.00 215.92 L 325.00 212.46 C325.00,209.03 324.97,209.00 320.50,209.00 C316.20,209.00 316.00,208.87 316.00,206.11 C316.00,202.90 314.59,202.00 309.59,202.00 C306.68,202.00 306.26,201.62 305.43,198.25 L 304.50 194.50 L 288.58 194.50 L 287.92 197.72 C287.56,199.49 287.48,202.07 287.75,203.46 C287.72,203.32 287.68,203.16 287.65,203.00 C287.32,201.35 286.64,200.00 286.14,200.00 C285.64,200.00 285.03,201.35 284.79,203.00 C284.54,204.65 284.72,206.00 285.17,206.00 C285.63,206.00 286.00,206.48 286.00,207.06 C286.00,207.64 285.51,207.82 284.92,207.45 C284.32,207.08 284.56,208.17 285.44,209.88 C286.98,212.86 290.08,214.46 293.06,213.81 C294.03,213.60 294.60,214.54 294.81,216.67 C295.08,219.51 295.53,219.91 299.06,220.51 C302.31,221.06 303.00,221.58 303.00,223.47 C303.00,226.47 305.20,228.20 308.69,227.92 C314.23,227.48 315.00,227.85 315.00,230.92 C315.00,234.33 316.08,234.96 321.50,234.69 C322.84,234.63 323.73,234.57 324.34,234.37 C323.64,234.61 322.55,234.69 320.83,234.80 C316.67,235.07 316.05,235.43 315.13,238.05 C314.18,240.79 313.75,241.00 309.05,241.00 C304.77,241.00 304.00,241.29 304.00,242.88 C304.00,245.23 301.18,246.03 295.13,245.39 C292.58,245.12 289.98,245.26 289.34,245.71 C288.72,246.13 288.27,248.01 288.03,250.81 C288.06,248.78 287.64,248.82 285.58,249.61 C282.74,250.70 284.22,266.21 287.36,268.23 C288.74,269.12 304.19,269.25 306.42,268.39 ZM 248.69 277.21 C249.35,276.79 249.89,274.89 249.90,272.98 C249.91,265.17 251.13,260.90 253.61,259.96 C255.48,259.25 256.00,258.31 256.00,255.65 C256.00,253.78 256.65,251.71 257.44,251.05 C258.24,250.39 259.02,248.44 259.19,246.71 C259.43,244.31 260.09,243.44 262.00,243.00 C264.27,242.48 264.59,241.73 265.51,234.97 C266.29,229.27 266.92,227.45 268.22,227.20 C269.63,226.93 269.97,225.45 270.21,218.68 L 270.50 210.50 L 278.50 209.50 L 278.79 201.15 C279.07,193.22 278.23,190.00 275.88,190.00 C275.39,190.00 275.00,192.70 275.00,196.00 L 275.00 202.00 L 274.00 202.00 L 274.15 196.00 C274.23,192.70 274.35,189.44 274.40,188.75 C274.47,187.85 272.39,187.50 267.00,187.50 L 259.50 187.50 L 259.00 194.50 C258.52,201.25 258.40,201.51 255.75,201.82 C251.96,202.25 251.16,204.28 250.38,215.38 L 249.70 225.00 L 246.40 225.00 C242.77,225.00 242.31,226.08 241.75,236.00 C241.52,240.14 241.26,240.53 238.50,241.00 C235.67,241.48 235.48,241.80 235.20,246.70 C234.91,251.72 234.80,251.89 231.70,252.19 L 228.50 252.50 L 228.21 261.25 L 228.00 267.64 C228.00,267.59 228.00,267.55 228.00,267.50 C228.00,264.71 225.58,264.05 224.61,266.58 C223.79,268.71 223.83,276.50 224.67,277.33 C225.59,278.26 247.22,278.15 248.69,277.21 ZM 99.47 280.00 L 91.00 280.00 L 91.00 275.61 C91.00,270.85 90.08,270.00 84.92,270.00 C82.19,270.00 82.00,269.74 82.00,266.11 C82.00,265.90 82.00,265.71 81.99,265.52 C82.00,265.67 82.00,265.84 82.00,266.00 C82.00,266.04 82.00,266.07 82.00,266.11 C82.01,269.53 82.29,269.98 84.25,269.88 C85.94,269.80 86.07,269.65 84.75,269.31 C83.79,269.06 83.00,268.46 83.00,267.97 C83.00,266.61 85.25,262.00 85.91,262.02 C87.43,262.05 88.75,263.74 89.21,266.25 C89.60,268.32 89.32,269.01 88.11,269.03 C85.55,269.08 89.52,271.10 93.34,271.70 C97.88,272.40 98.73,273.42 99.47,280.00 ZM 223.29 380.54 L 222.50 380.50 L 222.19 376.75 C221.90,373.27 221.65,373.00 218.69,372.98 C215.61,372.97 214.24,372.53 213.23,370.72 C214.63,372.84 217.18,373.41 221.22,372.61 C222.94,372.26 226.49,372.26 229.10,372.61 C233.10,373.14 233.94,373.63 234.48,375.77 C235.33,379.18 233.65,380.12 227.34,379.78 C224.51,379.63 222.40,379.84 222.65,380.25 C222.72,380.35 222.94,380.45 223.29,380.54 ZM 371.44 305.75 C371.82,303.96 372.38,301.04 372.70,299.25 C373.20,296.34 373.61,296.00 376.63,296.00 C379.69,296.00 380.00,296.27 380.00,298.93 C380.00,301.21 379.50,301.93 377.75,302.18 C376.03,302.43 375.43,303.26 375.19,305.75 C374.94,308.26 374.41,309.00 372.81,309.00 C371.01,309.00 370.84,308.59 371.44,305.75 ZM 279.44 373.57 C279.06,374.04 279.00,374.88 279.00,376.39 C279.00,376.84 278.99,377.24 278.95,377.61 C278.89,376.72 278.70,376.92 277.92,378.25 C276.72,380.32 270.01,380.74 269.98,378.75 C269.97,377.92 269.65,378.00 269.00,379.00 C268.35,380.00 268.03,380.08 268.02,379.25 C268.01,378.56 267.33,378.00 266.50,378.00 C264.67,378.00 264.55,376.62 266.25,375.21 C268.18,373.60 277.56,373.22 277.25,374.75 C277.11,375.44 277.45,376.00 278.00,376.00 C278.55,376.00 279.00,375.33 279.00,374.50 C279.00,374.12 279.15,373.80 279.44,373.57 ZM 176.31 341.59 C175.90,341.53 175.45,341.47 174.94,341.40 C170.79,340.85 170.00,340.41 169.98,338.62 C169.98,337.35 169.81,336.42 169.35,335.73 C169.56,335.71 169.88,335.52 170.31,335.15 C171.73,333.98 179.00,334.73 179.00,336.05 C179.00,336.48 179.27,337.55 179.60,338.41 C180.01,339.46 179.43,340.30 177.85,340.93 C177.09,341.24 176.58,341.44 176.31,341.59 ZM 248.39 397.23 C247.78,396.83 247.07,395.04 246.81,393.26 C246.30,389.67 248.23,388.30 252.10,389.53 C253.83,390.08 254.13,390.84 253.83,393.98 C253.65,395.84 253.71,396.86 254.06,397.21 C251.74,397.45 249.99,397.62 248.64,397.67 C248.72,397.55 248.64,397.40 248.39,397.23 ZM 147.15 317.48 L 137.00 316.90 L 137.00 310.00 L 137.12 313.75 C137.24,317.48 137.24,317.49 138.00,314.50 C138.42,312.85 138.82,312.09 138.88,312.82 C138.97,313.86 139.32,313.82 140.48,312.66 C142.20,310.95 145.94,311.58 146.12,313.62 C146.36,316.23 146.50,316.79 147.15,317.48 ZM 398.09 288.00 C399.65,288.00 400.00,287.27 400.00,284.00 L 400.00 287.89 L 395.25 288.20 C390.55,288.50 390.50,288.54 390.19,292.25 C389.90,295.73 389.65,296.00 386.69,296.02 C384.03,296.03 382.55,296.40 381.72,297.50 C381.92,297.17 382.14,296.92 382.35,296.79 C382.98,296.39 383.54,295.72 383.59,295.29 C383.90,292.41 385.30,291.09 387.03,292.02 C389.62,293.40 390.00,293.27 390.00,290.97 C390.00,289.85 390.67,288.68 391.50,288.36 C392.33,288.05 393.00,286.93 393.00,285.89 C393.00,284.63 393.71,284.00 395.12,284.00 C396.74,284.00 397.11,284.47 396.71,286.00 C396.32,287.48 396.68,288.00 398.09,288.00 ZM 265.04 385.43 C265.01,385.92 265.00,386.47 265.00,387.08 C265.00,387.98 264.98,388.61 264.81,389.04 C264.25,388.77 262.52,388.68 260.50,388.84 C256.98,389.12 256.00,388.87 256.00,387.68 C256.00,382.87 259.12,381.60 262.70,384.93 C264.32,386.44 264.68,386.77 265.04,385.43 ZM 201.20 357.00 L 190.00 357.00 L 190.00 353.55 C190.00,356.88 190.13,357.00 193.75,356.94 C197.00,356.88 197.20,356.75 195.25,355.97 C192.18,354.74 192.30,351.37 195.44,350.77 C198.71,350.14 200.16,351.21 200.35,354.37 C200.43,355.82 200.81,357.00 201.19,357.00 C201.19,357.00 201.20,357.00 201.20,357.00 ZM 80.44 261.69 C79.53,261.17 78.11,261.00 75.98,261.00 C73.40,261.00 73.09,260.64 72.81,257.25 C72.66,255.45 72.55,254.51 71.99,253.99 C72.62,254.54 72.81,255.54 73.11,257.50 C73.63,260.94 73.74,261.08 73.86,258.46 C73.98,255.87 74.42,255.39 76.89,255.21 C80.05,254.96 81.47,256.94 80.46,260.14 C80.25,260.79 80.26,261.36 80.44,261.69 ZM 309.23 350.01 C308.34,350.68 308.00,351.78 308.00,353.47 L 308.00 356.90 L 302.75 357.20 C300.13,357.35 298.82,357.44 298.09,357.94 C298.85,357.38 300.22,357.21 303.00,356.91 C306.23,356.57 307.19,356.26 305.33,356.16 C301.02,355.94 299.00,355.06 299.00,353.39 C299.00,352.41 300.31,352.00 303.42,352.00 C306.06,352.00 308.00,351.50 308.25,350.75 C308.35,350.46 308.69,350.21 309.23,350.01 ZM 123.55 302.69 C119.67,300.32 119.21,299.64 120.58,298.28 C123.44,295.42 127.76,297.67 127.57,301.92 C127.48,303.83 125.91,304.13 123.55,302.69 ZM 427.59 254.23 C427.24,254.82 427.00,256.08 427.00,257.50 C427.00,260.79 426.80,261.00 423.70,261.00 C421.70,261.00 420.30,261.35 419.39,262.18 C419.73,261.78 419.63,261.26 419.11,260.63 C417.93,259.21 418.69,257.96 421.75,256.24 C423.23,255.42 424.00,255.35 424.00,256.05 C424.00,256.64 424.42,256.86 424.93,256.54 C425.44,256.23 426.05,257.21 426.28,258.73 C426.62,260.98 426.73,260.79 426.85,257.75 C426.91,256.21 427.21,254.85 427.59,254.23 ZM 289.40 361.25 C289.49,358.90 289.98,358.45 292.77,358.19 C295.86,357.89 296.03,358.04 295.81,360.94 C295.60,363.65 295.22,364.00 292.44,364.00 C289.66,364.00 289.31,363.69 289.40,361.25 ZM 182.61 347.42 C181.68,345.00 181.86,344.27 183.57,343.61 C185.84,342.74 189.00,344.74 189.00,347.04 C189.00,348.54 188.32,349.00 186.11,349.00 C184.39,349.00 182.97,348.36 182.61,347.42 ZM 409.41 271.96 L 409.00 278.36 C408.95,277.60 408.49,277.00 407.94,277.00 C407.36,277.00 407.16,277.45 407.50,278.00 C407.87,278.60 406.50,279.00 404.02,279.00 C400.18,279.00 400.00,278.87 401.05,276.90 C401.93,275.26 402.91,274.89 405.54,275.19 C408.53,275.54 408.94,275.30 409.20,273.04 C409.25,272.62 409.31,272.26 409.41,271.96 ZM 280.00 369.02 C280.00,366.80 284.50,365.10 286.11,366.71 C287.85,368.45 285.93,371.00 282.89,371.00 C280.68,371.00 280.00,370.54 280.00,369.02 ZM 361.05 316.91 C360.35,316.99 359.38,317.00 358.04,317.00 C354.21,317.00 352.75,317.44 352.24,319.73 C352.27,318.60 352.28,317.66 352.27,317.25 C352.24,316.56 352.65,316.00 353.18,316.00 C353.71,316.00 354.82,315.33 355.64,314.50 C357.37,312.77 360.00,312.50 360.00,314.06 C360.00,314.64 360.45,314.84 361.00,314.50 C361.55,314.16 362.00,314.32 362.00,314.86 C362.00,315.39 361.44,316.06 360.75,316.34 C360.01,316.64 360.13,316.85 361.05,316.91 ZM 330.40 332.27 C332.00,332.03 333.94,331.20 334.72,330.42 C336.87,328.28 340.00,328.62 340.00,331.00 C340.00,332.80 339.38,332.99 333.75,332.85 C330.31,332.77 328.81,332.51 330.40,332.27 ZM 436.62 233.46 C435.87,231.50 437.57,229.00 439.65,229.00 C441.81,229.00 442.39,231.76 440.60,233.55 C439.41,234.73 439.00,234.80 438.98,233.82 C438.97,232.74 438.82,232.74 438.12,233.83 C437.45,234.89 437.14,234.82 436.62,233.46 ZM 238.15 387.40 C236.60,385.65 236.69,385.50 239.75,384.56 C241.80,383.93 242.22,384.33 241.91,386.64 C241.87,386.99 242.43,387.66 243.16,388.12 C244.10,388.71 243.74,388.96 242.00,388.95 C240.62,388.93 238.89,388.24 238.15,387.40 ZM 103.91 286.39 C103.10,285.42 103.02,284.58 103.68,283.92 C105.01,282.59 107.70,283.73 108.26,285.87 C108.83,288.07 105.62,288.46 103.91,286.39 ZM 349.02 234.96 C348.52,235.54 347.71,235.67 346.25,235.81 C343.19,236.11 343.00,236.35 343.00,240.06 L 343.00 244.00 L 341.89 244.00 L 342.19 239.75 C342.49,235.61 342.60,235.49 346.30,235.19 ZM 205.62 361.44 C204.91,359.60 207.70,358.30 209.17,359.77 C209.89,360.49 209.60,361.15 208.21,361.89 C206.64,362.73 206.07,362.63 205.62,361.44 ZM 116.58 296.78 C116.00,296.70 115.15,296.60 114.34,296.51 C113.85,296.46 113.41,296.40 113.00,296.33 C113.46,296.25 113.60,295.82 113.57,294.94 C113.47,292.40 115.42,292.42 115.82,294.96 C115.94,295.75 116.25,296.44 116.58,296.78 ZM 252.42 202.15 C251.55,201.11 250.01,203.49 250.05,205.81 L 250.09 208.50 L 251.40 205.50 C252.13,203.85 252.59,202.34 252.42,202.15 ZM 390.38 268.49 L 390.86 265.50 C391.16,263.59 391.38,262.58 391.98,262.02 C391.46,262.56 391.33,263.50 391.19,265.25 C391.04,267.06 390.88,268.00 390.38,268.49 ZM 334.34 315.46 C333.73,315.86 332.63,316.06 330.75,316.19 C328.70,316.34 327.63,316.45 327.04,316.96 C327.66,316.38 328.79,316.20 331.00,315.90 ZM 111.19 295.88 C109.53,295.24 109.00,294.13 109.00,292.03 C109.00,291.36 108.98,290.83 108.91,290.42 C109.03,290.85 109.11,291.41 109.19,292.14 C109.38,294.03 110.05,295.28 111.19,295.88 ZM 394.27 122.05 L 398.00 122.05 L 398.00 124.95 C398.00,125.03 398.00,125.10 398.00,125.17 C398.00,124.94 398.00,124.70 398.00,124.45 C398.00,122.83 397.93,122.31 394.27,122.05 ZM 106.55 289.00 C106.40,289.00 106.25,289.00 106.08,289.00 C101.20,289.00 100.07,288.17 100.00,284.26 C100.71,288.41 101.83,288.97 105.69,288.98 C106.00,288.99 106.29,288.99 106.55,289.00 ZM 124.81 114.90 C124.89,114.69 125.00,114.50 125.12,114.36 C125.57,113.82 127.38,113.48 132.19,113.28 C127.75,113.53 125.68,114.00 124.81,114.90 ZM 408.97 278.80 L 408.89 280.00 L 404.50 280.00 C407.52,280.00 408.76,279.68 408.97,278.80 ZM 148.06 324.15 C147.94,323.55 147.88,322.76 147.80,321.70 L 147.55 318.20 C147.81,319.05 148.00,320.57 148.00,322.11 C148.00,322.97 148.00,323.63 148.06,324.15 ZM 82.13 151.00 C81.23,149.25 79.55,148.36 76.92,148.10 C79.99,148.39 82.01,149.43 82.12,150.87 C82.12,150.91 82.12,150.96 82.13,151.00 ZM 342.00 121.02 L 308.50 120.50 L 342.00 121.00 C350.45,121.13 356.83,121.24 361.62,121.37 C356.10,121.26 349.31,121.13 342.00,121.02 ZM 100.00 255.99 C100.00,256.01 100.00,256.04 100.00,256.06 C100.00,258.75 99.75,259.71 98.55,260.25 C99.46,259.43 99.99,257.98 100.00,255.99 ZM 277.02 380.44 C275.82,380.88 273.94,381.00 271.03,381.00 C270.98,381.00 270.94,381.00 270.89,381.00 C268.02,381.01 266.51,381.28 265.74,382.46 C266.26,381.10 267.25,381.00 270.89,381.00 C273.77,381.00 275.74,380.84 277.02,380.44 ZM 169.01 335.32 C168.04,334.36 166.23,333.99 162.98,333.81 C159.87,333.63 158.53,333.55 157.85,332.85 C158.54,333.55 159.95,333.63 163.25,333.80 C166.49,333.97 169.00,334.57 169.00,335.17 C169.00,335.23 169.00,335.27 169.01,335.32 ZM 209.61 114.60 C210.60,115.40 211.02,116.57 211.19,118.25 C211.31,119.57 211.44,120.36 211.89,120.88 C211.45,120.39 211.31,119.67 211.19,118.50 C211.04,117.08 210.37,115.46 209.61,114.60 ZM 253.90 378.92 C253.08,380.32 251.67,381.06 249.90,380.91 C251.21,380.94 252.41,380.45 253.43,379.43 C253.60,379.26 253.75,379.09 253.90,378.92 ZM 255.25 397.08 L 254.99 397.11 C255.56,396.57 256.00,395.03 256.00,393.39 C256.00,391.95 256.01,391.12 256.38,390.64 C256.00,391.13 256.00,391.99 256.00,393.50 C256.00,395.42 255.66,397.04 255.25,397.08 ZM 410.09 139.51 C411.35,138.94 413.07,138.89 414.98,139.49 C413.81,139.12 411.76,139.09 410.43,139.43 C410.31,139.46 410.20,139.48 410.09,139.51 ZM 202.73 113.15 C205.21,113.18 206.98,113.39 208.24,113.85 C207.03,113.54 205.00,113.30 202.73,113.15 ZM 213.12 345.68 L 213.12 345.75 C213.02,347.63 213.50,347.99 216.19,348.00 C216.22,348.00 216.26,348.00 216.30,348.00 C218.75,348.00 220.32,348.56 221.19,349.82 C221.72,350.60 221.98,351.66 222.00,353.03 C221.98,351.66 221.72,350.61 221.19,349.82 C220.32,348.55 218.71,348.00 216.19,348.00 C213.25,348.00 212.85,347.86 213.12,345.68 ZM 203.91 122.02 C209.48,121.99 209.85,122.35 210.33,124.14 C209.88,122.45 209.33,122.09 203.91,122.02 ZM 222.54 362.80 C222.64,363.10 222.90,363.33 223.35,363.50 L 222.50 363.50 L 222.22 361.57 C222.33,362.08 222.44,362.52 222.54,362.80 ZM 83.02 142.65 C83.05,141.25 83.45,140.04 84.25,139.74 C84.48,139.65 84.86,139.59 85.33,139.57 C83.74,139.78 83.14,140.69 83.02,142.65 ZM 407.65 134.45 C407.28,132.84 406.62,131.66 405.70,130.95 C406.51,131.48 407.11,132.28 407.38,133.28 C407.48,133.67 407.57,134.06 407.65,134.45 ZM 285.51 355.38 C287.17,354.58 287.71,352.98 287.24,350.45 C287.24,350.47 287.24,350.48 287.24,350.50 C287.74,353.09 287.27,354.65 285.51,355.38 ZM 106.66 261.16 C106.08,261.04 105.40,261.00 104.56,261.00 C103.65,261.00 102.88,261.14 102.26,261.42 C103.50,260.85 105.22,260.75 106.66,261.16 ZM 100.40 265.05 C100.47,265.80 100.67,266.63 101.02,267.54 C101.07,267.67 101.12,267.79 101.17,267.91 C100.66,267.12 100.39,266.16 100.40,265.05 ZM 409.25 146.85 C408.71,146.31 408.26,145.11 408.08,143.88 C408.37,145.11 408.82,146.28 409.25,146.80 C409.40,146.98 409.62,147.14 409.90,147.28 C409.63,147.15 409.40,147.00 409.25,146.85 ZM 211.98 367.56 C211.23,365.77 210.25,365.38 206.92,365.00 C204.62,364.74 203.51,364.58 202.94,363.93 C203.52,364.58 204.64,364.74 206.97,365.00 C210.36,365.38 211.27,365.70 211.98,367.56 ZM 105.52 121.69 C101.95,121.18 101.95,119.83 102.88,116.33 C101.97,119.75 101.98,121.08 105.52,121.69 ZM 120.02 286.14 C119.74,286.01 119.58,285.87 119.53,285.70 C119.41,285.31 119.21,284.54 119.00,283.66 C119.31,284.87 119.59,285.65 120.02,286.14 ZM 195.79 241.77 C195.98,242.25 196.10,242.78 196.14,243.37 C196.15,243.63 196.17,243.85 196.18,244.04 C196.04,243.82 196.00,243.54 196.00,243.20 C196.00,242.67 195.93,242.19 195.79,241.77 ZM 190.32 114.94 L 190.50 113.50 L 191.11 113.48 C190.87,113.56 190.72,113.65 190.66,113.75 C190.55,113.91 190.44,114.34 190.32,114.94 ZM 175.10 228.55 C175.21,227.14 176.00,227.04 178.69,226.81 C180.57,226.66 181.54,226.50 182.08,225.92 C181.54,226.50 180.59,226.66 178.75,226.81 C176.14,227.03 175.34,227.21 175.10,228.55 ZM 81.84 263.93 C81.68,263.06 81.39,262.44 80.88,262.00 C80.90,262.00 80.91,262.00 80.93,262.00 C81.32,262.00 81.66,262.77 81.84,263.93 ZM 264.23 389.67 C263.61,389.97 262.50,390.00 260.50,390.00 C262.05,390.00 263.42,389.87 264.23,389.67 ZM 419.22 262.35 C418.37,263.25 418.00,264.64 418.00,266.64 C418.00,267.94 417.97,268.72 417.63,269.21 C417.97,268.70 418.00,267.88 418.00,266.50 C418.00,264.64 418.47,262.83 419.05,262.47 C419.11,262.43 419.17,262.39 419.22,262.35 ZM 304.27 347.79 C306.21,347.60 307.08,347.27 307.14,346.75 C307.21,346.13 307.28,345.53 307.33,344.93 C307.28,345.53 307.21,346.14 307.14,346.79 C307.08,347.35 306.28,347.67 304.27,347.79 ZM 362.26 316.57 C362.76,316.12 363.05,315.21 363.19,313.75 C363.03,315.34 362.93,316.16 362.26,316.57 ZM 259.67 371.87 C257.82,371.91 256.86,371.56 256.45,370.72 C257.13,371.59 258.01,371.90 259.67,371.87 ZM 294.19 339.80 C298.11,339.61 299.60,339.52 300.25,338.73 C299.60,339.52 298.12,339.61 294.25,339.80 L 288.00 340.10 L 288.00 341.48 L 287.89 340.10 ZM 235.00 381.00 L 235.00 381.10 L 233.00 381.00 ZM 288.67 347.33 C288.73,347.40 288.92,347.46 289.22,347.52 L 288.50 347.50 L 288.45 346.95 C288.52,347.13 288.59,347.26 288.67,347.33 ZM 259.73 155.48 C260.52,155.79 261.71,155.99 263.02,156.00 C261.52,156.00 260.44,155.85 259.73,155.48 ZM 258.64 153.94 C258.54,153.28 258.63,152.43 258.88,151.36 C258.69,152.25 258.61,153.21 258.64,153.94 ZM 179.54 342.74 C179.28,342.40 178.92,342.18 178.37,342.00 C178.90,342.10 179.27,342.32 179.54,342.74 ZM 375.52 121.50 L 375.50 121.50 L 375.67 119.39 C375.60,120.36 375.55,121.12 375.52,121.50 ZM 128.08 289.82 C128.12,290.23 128.15,290.71 128.19,291.25 L 128.50 295.50 ZM 235.76 148.00 C236.96,147.98 237.89,148.06 238.63,148.30 C237.92,148.08 237.01,148.00 235.86,148.00 C235.83,148.00 235.80,148.00 235.76,148.00 ZM 259.07 150.60 C259.23,150.03 259.40,149.62 259.74,149.31 C259.44,149.63 259.23,150.06 259.07,150.60 ZM 287.91 258.29 L 288.00 261.08 L 287.90 258.29 C287.89,257.91 287.88,257.47 287.87,256.99 C287.88,257.41 287.89,257.85 287.91,258.29 ZM 243.80 393.00 C243.94,394.15 244.08,395.04 244.26,395.73 C244.05,395.05 243.94,394.15 243.80,393.00 ZM 233.97 362.98 C234.52,362.61 234.70,362.06 234.83,361.19 C234.70,362.09 234.53,362.64 233.97,362.98 ZM 409.91 244.81 C409.36,245.67 409.02,246.88 408.84,248.50 C409.02,246.86 409.34,245.67 409.91,244.81 ZM 325.81 230.75 C325.68,232.39 325.59,233.31 325.13,233.85 C325.57,233.32 325.67,232.39 325.81,230.75 ZM 240.81 160.29 C240.67,158.52 240.55,157.57 240.03,157.03 C240.56,157.57 240.67,158.51 240.81,160.29 ZM 221.20 357.22 C221.42,357.49 221.57,357.83 221.67,358.25 C221.55,357.82 221.40,357.49 221.20,357.22 ZM 91.22 257.90 C91.07,257.53 90.99,257.13 90.98,256.71 C90.97,255.13 90.67,254.03 89.97,253.30 C90.67,254.03 90.97,255.13 90.98,256.70 C90.99,257.09 91.07,257.50 91.22,257.90 ZM 413.29 147.81 C413.33,147.81 413.37,147.81 413.41,147.80 C414.69,147.68 415.45,147.52 415.93,147.07 C415.46,147.52 414.72,147.68 413.50,147.80 C413.43,147.80 413.36,147.81 413.29,147.81 ZM 277.83 359.46 C277.83,359.58 277.82,359.70 277.81,359.83 L 277.50 363.50 L 277.81 359.75 C277.82,359.65 277.83,359.56 277.83,359.46 ZM 324.84 327.37 C324.83,327.51 324.82,327.66 324.81,327.82 L 324.50 331.50 L 324.81 327.75 ZM 180.19 345.75 C180.32,347.29 180.40,348.20 180.79,348.75 C180.40,348.20 180.32,347.30 180.19,345.78 C180.18,345.68 180.18,345.59 180.17,345.50 C180.18,345.58 180.18,345.66 180.19,345.75 ZM 101.43 261.95 C101.27,262.09 101.12,262.25 101.00,262.43 C101.12,262.25 101.26,262.09 101.43,261.95 Z" fill="rgb(251,177,208)"/>
<path d="M 0.00 250.00 L 0.00 0.00 L 250.00 0.00 L 500.00 0.00 L 500.00 250.00 L 500.00 500.00 L 250.00 500.00 L 0.00 500.00 L 0.00 250.00 ZM 255.25 397.08 C255.66,397.04 256.00,395.42 256.00,393.50 C256.00,390.02 256.02,390.00 260.50,390.00 C264.81,390.00 265.00,389.87 265.00,387.08 C265.00,381.82 265.81,381.00 271.03,381.00 C277.87,381.00 279.00,380.35 279.00,376.39 C279.00,373.31 279.27,373.00 281.92,373.00 C286.76,373.00 288.00,372.07 288.00,368.45 C288.00,365.24 288.16,365.10 292.25,364.81 C296.27,364.52 296.53,364.31 297.00,361.00 C297.49,357.56 297.58,357.50 302.75,357.20 L 308.00 356.90 L 308.00 353.47 C308.00,349.81 309.58,348.87 315.00,349.30 C317.21,349.48 317.54,349.06 317.81,345.75 C318.11,342.15 318.27,342.00 321.81,341.98 C326.10,341.97 327.53,341.18 327.66,338.75 C327.71,337.79 327.81,336.34 327.88,335.54 C327.97,334.44 329.78,334.02 335.25,333.79 L 342.50 333.50 L 343.00 330.00 C343.47,326.69 343.73,326.48 347.75,326.19 C351.69,325.91 352.00,325.67 352.00,323.02 C352.00,317.82 352.82,317.00 358.04,317.00 C362.76,317.00 362.88,316.92 363.19,313.75 C363.50,310.54 363.58,310.49 369.50,310.00 C375.39,309.51 375.51,309.44 375.81,306.31 C376.04,303.91 376.66,303.05 378.31,302.81 C379.77,302.60 380.62,301.67 380.85,300.00 C381.28,296.92 382.58,296.04 386.69,296.02 C389.65,296.00 389.90,295.73 390.19,292.25 C390.50,288.54 390.55,288.50 395.25,288.20 L 400.00 287.89 L 400.00 283.95 L 400.00 280.00 L 404.45 280.00 L 408.89 280.00 L 409.20 275.25 L 409.50 270.50 L 413.75 270.19 C417.81,269.90 418.00,269.74 418.00,266.64 C418.00,262.53 419.54,261.00 423.70,261.00 C426.80,261.00 427.00,260.79 427.00,257.50 C427.00,255.57 427.45,253.94 428.00,253.88 C428.55,253.81 429.45,253.64 430.00,253.50 C430.55,253.36 432.11,253.19 433.46,253.12 C435.84,253.00 435.93,252.73 436.21,244.75 L 436.50 236.50 L 440.50 236.00 L 444.50 235.50 L 444.46 230.25 C444.44,227.36 444.33,211.56 444.21,195.13 L 444.00 165.26 L 440.13 164.64 C436.78,164.10 436.17,163.59 435.63,160.88 C435.28,159.16 435.00,155.78 435.00,153.38 L 435.00 149.00 L 431.00 149.00 C427.04,149.00 427.00,148.97 427.00,145.20 C427.00,140.42 425.59,139.00 420.86,139.00 C417.17,139.00 417.11,138.94 416.81,134.75 C416.50,130.53 416.47,130.50 412.31,130.20 C408.26,129.90 408.10,129.76 407.81,126.20 C407.50,122.55 407.44,122.50 402.75,122.20 C398.26,121.91 398.00,121.74 398.00,119.02 C398.00,114.00 395.93,113.00 385.56,113.00 L 376.26 113.00 L 375.62 109.00 L 374.98 105.00 L 342.00 105.00 L 309.02 105.00 L 308.38 109.00 L 307.74 113.00 L 299.45 113.00 C288.97,113.00 288.00,113.38 288.00,117.50 C288.00,121.60 288.99,122.00 299.11,122.00 C306.41,122.00 307.13,122.18 307.88,124.21 C308.33,125.43 308.49,127.23 308.23,128.21 C307.83,129.78 306.53,130.00 297.88,130.00 C288.33,130.00 288.00,129.92 287.88,127.75 C287.82,126.51 287.71,124.82 287.63,124.00 C287.54,122.95 286.10,122.41 282.77,122.20 L 278.04 121.89 L 277.39 125.95 C276.77,129.83 276.59,130.00 273.07,130.00 C268.55,130.00 267.00,131.44 267.00,135.64 C267.00,138.74 266.81,138.90 262.75,139.19 C258.73,139.48 258.47,139.69 258.00,143.00 L 257.50 146.50 L 249.50 146.50 L 241.50 146.50 L 241.00 143.00 C240.53,139.69 240.26,139.47 236.00,139.00 C231.61,138.51 231.49,138.41 231.00,134.50 C230.51,130.59 230.39,130.49 226.00,130.00 C221.74,129.53 221.47,129.31 221.00,126.00 C220.53,122.69 220.26,122.47 216.00,122.00 C211.78,121.53 211.48,121.30 211.19,118.25 C210.76,113.80 208.47,112.87 198.74,113.21 L 190.50 113.50 L 190.00 117.50 L 189.50 121.50 L 157.50 121.70 L 125.50 121.91 L 125.19 125.99 L 124.88 130.06 L 113.69 129.78 L 102.50 129.50 L 102.00 126.00 C101.51,122.59 101.38,122.50 97.00,122.50 C92.62,122.50 92.49,122.59 92.00,126.00 C91.54,129.22 91.18,129.54 87.51,130.00 C84.50,130.38 83.45,130.99 83.22,132.50 C82.30,138.66 82.13,138.88 77.75,139.19 C73.52,139.50 73.50,139.52 73.19,143.75 C72.91,147.61 73.10,148.00 75.19,148.01 C81.97,148.05 83.83,150.99 82.54,159.59 C81.89,163.94 81.83,164.00 77.94,164.00 L 74.00 164.00 L 73.99 158.75 C73.96,149.87 73.39,148.85 68.62,149.20 L 64.50 149.50 L 64.21 156.75 L 63.91 164.00 L 61.03 164.00 C54.90,164.00 54.95,163.73 55.24,201.33 L 55.50 235.50 L 59.50 236.00 L 63.50 236.50 L 63.79 244.69 L 64.08 252.89 L 68.29 253.19 C72.37,253.49 72.51,253.62 72.81,257.25 C73.09,260.64 73.40,261.00 75.98,261.00 C80.94,261.00 82.00,261.90 82.00,266.11 C82.00,269.74 82.19,270.00 84.92,270.00 C90.08,270.00 91.00,270.85 91.00,275.61 L 91.00 280.00 L 95.50 280.00 L 100.00 280.00 L 100.00 283.89 C100.00,288.11 101.05,289.00 106.08,289.00 C108.66,289.00 109.00,289.35 109.00,292.03 C109.00,295.11 110.13,296.06 114.34,296.51 C115.53,296.64 116.81,296.80 117.18,296.87 C117.56,296.94 118.01,298.22 118.18,299.71 C118.41,301.65 119.21,302.59 121.00,303.00 C122.93,303.45 123.57,304.31 123.81,306.79 L 124.13 310.00 L 130.56 310.00 L 137.00 310.00 L 137.00 313.45 L 137.00 316.90 L 142.25 317.20 L 147.50 317.50 L 147.80 321.70 C148.11,325.85 148.15,325.89 152.30,326.20 C156.26,326.48 156.53,326.70 157.00,330.00 C157.50,333.47 157.55,333.50 162.98,333.81 C168.66,334.13 169.96,335.02 169.98,338.62 C170.00,340.41 170.79,340.85 174.94,341.40 C179.79,342.04 179.89,342.13 180.19,345.78 C180.50,349.46 180.55,349.50 185.25,349.80 C189.94,350.11 190.00,350.15 190.00,353.55 L 190.00 357.00 L 195.94 357.00 L 201.88 357.00 L 202.19 360.75 C202.49,364.38 202.64,364.52 206.92,365.00 C210.77,365.43 211.47,365.89 212.32,368.50 C213.53,372.20 214.62,372.97 218.69,372.98 C221.65,373.00 221.90,373.27 222.19,376.75 L 222.50 380.50 L 228.75 380.80 L 235.00 381.10 L 235.00 385.49 L 235.00 389.89 L 239.25 390.19 C242.94,390.46 243.54,390.83 243.80,393.00 C244.42,398.19 244.52,398.22 255.25,397.08 ZM 124.62 118.86 C123.44,112.95 123.16,113.00 158.18,113.00 L 190.12 113.00 L 189.81 109.25 L 189.50 105.50 L 157.27 105.24 L 125.05 104.97 L 124.44 107.74 C124.11,109.26 123.67,111.05 123.46,111.71 C123.21,112.53 119.90,113.02 113.37,113.21 L 103.64 113.50 L 102.88 116.33 C101.47,121.63 102.20,122.00 114.23,122.00 L 125.25 122.00 L 124.62 118.86 ZM 246.75 379.92 C244.53,378.63 244.41,373.44 246.58,372.61 C249.58,371.45 253.78,371.98 254.39,373.58 C255.37,376.13 255.10,377.75 253.43,379.43 C251.63,381.22 249.28,381.40 246.75,379.92 ZM 236.09 369.75 C234.77,366.25 236.52,364.00 240.57,364.00 C244.45,364.00 245.58,365.54 244.59,369.50 C244.07,371.57 243.36,372.00 240.45,372.00 C237.72,372.00 236.74,371.50 236.09,369.75 ZM 256.01 370.02 C255.39,368.87 255.18,367.02 255.53,365.91 C256.06,364.24 256.89,363.95 260.33,364.20 C264.37,364.49 264.50,364.61 264.50,368.00 C264.50,371.31 264.30,371.52 260.82,371.81 C257.91,372.05 256.89,371.67 256.01,370.02 ZM 222.54 362.80 C222.30,362.09 221.96,360.38 221.80,359.00 C221.55,356.90 220.86,356.42 217.50,356.00 C213.82,355.54 213.46,355.22 213.00,352.00 C212.55,348.83 212.17,348.47 209.00,348.23 C202.06,347.69 201.15,347.20 200.81,343.75 C200.51,340.65 200.28,340.49 195.91,340.20 C191.55,339.92 191.29,339.73 190.41,336.23 C189.63,333.08 189.08,332.54 186.50,332.41 C184.85,332.33 182.98,332.20 182.35,332.13 C181.72,332.06 180.80,330.31 180.32,328.25 L 179.43 324.50 L 173.49 324.19 C167.13,323.87 166.04,323.07 166.02,318.75 C166.00,316.09 165.82,316.00 160.62,316.00 C157.67,316.00 153.87,315.72 152.18,315.39 C149.51,314.85 149.07,314.30 148.80,311.14 C148.50,307.56 148.42,307.49 143.50,307.00 L 138.50 306.50 L 138.20 301.30 L 137.90 296.11 L 133.20 295.80 L 128.50 295.50 L 128.19 291.25 C127.89,287.01 127.87,287.00 123.91,287.00 C119.87,287.00 119.67,286.81 118.56,281.75 C118.09,279.57 117.39,279.00 115.23,278.98 C111.25,278.96 109.82,277.68 109.53,273.88 C109.29,270.77 108.98,270.48 105.58,270.19 C102.81,269.95 101.68,269.30 101.02,267.54 C99.47,263.47 100.80,261.00 104.56,261.00 C108.21,261.00 109.01,261.80 109.95,266.41 C110.30,268.11 111.24,269.54 112.04,269.59 C112.84,269.65 114.71,269.76 116.19,269.85 C118.54,269.98 118.92,270.47 119.19,273.75 C119.49,277.38 119.63,277.51 123.70,277.80 L 127.89 278.11 L 128.20 282.80 L 128.50 287.50 L 133.25 287.80 L 138.00 288.11 L 138.00 291.94 C138.00,295.69 138.09,295.79 142.34,296.42 C144.73,296.78 148.44,296.82 150.59,296.50 C155.72,295.75 156.74,296.60 157.18,302.00 L 157.55 306.50 L 162.03 307.00 C166.39,307.49 166.51,307.60 167.00,311.50 L 167.50 315.50 L 174.00 316.00 L 180.50 316.50 L 180.81 320.25 C181.11,323.86 181.26,324.00 184.86,324.00 C189.32,324.00 191.00,325.42 191.00,329.20 C191.00,331.88 191.21,332.00 195.82,332.00 C200.57,332.00 200.66,332.06 201.57,335.75 C202.45,339.31 202.72,339.52 206.98,339.82 C212.60,340.22 213.77,341.19 213.22,344.98 C212.80,347.84 212.96,348.00 216.19,348.00 C220.33,348.00 222.00,349.49 222.00,353.20 C222.00,355.92 222.15,356.00 227.38,356.00 C233.31,356.00 235.36,357.43 234.83,361.19 C234.53,363.25 233.89,363.53 228.74,363.80 C224.68,364.01 222.85,363.72 222.54,362.80 ZM 265.00 360.65 C265.00,356.63 266.10,356.00 273.08,356.00 C277.80,356.00 278.00,355.89 278.00,353.20 C278.00,349.55 279.66,348.00 283.58,348.00 C286.15,348.00 286.86,348.46 287.23,350.40 C287.97,354.27 286.35,356.00 282.01,356.00 C278.24,356.00 278.11,356.11 277.81,359.75 L 277.50 363.50 L 271.25 363.80 L 265.00 364.10 L 265.00 360.65 ZM 288.67 347.33 C288.30,346.97 288.00,345.19 288.00,343.38 L 288.00 340.10 L 294.25 339.80 C300.37,339.51 300.51,339.44 300.84,336.50 C301.22,333.15 302.44,332.04 305.75,332.02 C307.64,332.00 308.00,331.45 308.00,328.61 C308.00,324.45 309.00,324.00 318.14,324.00 L 325.12 324.00 L 324.81 327.75 L 324.50 331.50 L 316.25 332.42 L 308.00 333.33 L 307.83 337.42 C307.67,341.22 307.49,343.70 307.14,346.75 C307.04,347.64 304.49,348.00 298.17,348.00 C293.31,348.00 289.03,347.70 288.67,347.33 ZM 326.19 320.25 C326.49,316.61 326.62,316.49 330.75,316.19 C334.15,315.95 335.00,315.50 335.00,313.99 C335.00,310.15 337.21,307.00 339.92,307.00 C341.40,307.00 343.04,306.17 343.72,305.07 C344.39,304.01 346.18,303.00 347.71,302.82 C349.91,302.57 350.57,301.92 350.82,299.75 C351.16,296.74 353.64,295.60 358.63,296.17 C361.36,296.48 361.50,296.74 361.50,301.50 L 361.50 306.50 L 357.51 306.82 C352.52,307.23 351.20,308.32 350.81,312.32 C350.54,315.04 350.07,315.54 347.50,315.77 C341.61,316.31 340.00,317.00 340.00,318.99 C340.00,321.59 335.18,324.00 329.99,324.00 L 325.88 324.00 L 326.19 320.25 ZM 363.71 295.38 C363.32,294.99 363.00,293.17 363.00,291.33 C363.00,288.04 363.06,288.00 367.56,288.00 L 372.12 288.00 L 371.81 291.75 C371.52,295.25 371.27,295.52 367.96,295.80 C366.02,295.96 364.11,295.77 363.71,295.38 ZM 373.19 282.75 C373.50,278.52 373.52,278.50 377.75,278.19 C381.96,277.89 382.00,277.85 382.00,274.05 C382.00,269.90 383.07,269.00 388.02,269.00 C390.60,269.00 390.91,268.64 391.19,265.25 C391.48,261.71 391.71,261.48 395.22,261.19 C398.45,260.92 399.01,261.20 399.55,263.35 C400.54,267.30 398.48,270.00 394.46,270.00 C391.41,270.00 391.00,270.31 391.00,272.57 C391.00,277.22 389.31,279.00 384.91,279.00 C382.41,279.00 381.12,279.39 381.52,280.02 C381.86,280.59 381.85,282.39 381.49,284.02 C380.90,286.72 380.46,287.00 376.86,287.00 L 372.89 287.00 L 373.19 282.75 ZM 228.21 261.25 L 228.50 252.50 L 231.70 252.19 C234.80,251.89 234.91,251.72 235.20,246.70 C235.48,241.80 235.67,241.48 238.50,241.00 C241.26,240.53 241.52,240.14 241.75,236.00 C242.31,226.08 242.77,225.00 246.40,225.00 L 249.70 225.00 L 250.38 215.38 C251.16,204.28 251.96,202.25 255.75,201.82 C258.40,201.51 258.52,201.25 259.00,194.50 L 259.50 187.50 L 267.00 187.50 C272.39,187.50 274.47,187.85 274.40,188.75 C274.35,189.44 274.23,192.70 274.15,196.00 L 274.00 202.00 L 270.54 202.00 L 267.07 202.00 L 266.79 211.75 L 266.50 221.50 L 262.75 221.81 L 259.00 222.12 L 259.00 231.56 C259.00,238.38 258.65,241.03 257.75,241.12 C257.06,241.18 256.05,241.34 255.50,241.46 C254.95,241.59 253.73,241.76 252.79,241.85 C251.35,241.98 251.03,243.32 250.79,250.25 L 250.50 258.50 L 247.25 258.81 C244.02,259.12 244.00,259.16 244.00,264.56 L 244.00 270.00 L 235.96 270.00 L 227.92 270.00 L 228.21 261.25 ZM 92.75 259.92 C91.79,259.36 90.99,257.91 90.98,256.70 C90.96,253.86 89.99,252.58 87.50,252.15 C84.39,251.62 83.00,250.01 83.00,246.94 C83.00,244.33 82.67,244.09 78.75,243.81 L 74.50 243.50 L 74.20 236.10 C74.04,232.03 74.32,228.28 74.82,227.78 C75.33,227.27 77.37,227.17 79.37,227.54 L 83.00 228.22 L 83.02 234.36 C83.03,241.83 83.55,242.75 88.01,243.17 C91.26,243.48 91.54,243.78 92.01,247.50 C92.37,250.27 92.97,251.40 93.95,251.19 C94.73,251.02 96.41,251.14 97.69,251.46 C99.61,251.94 100.00,252.70 100.00,255.91 C100.00,260.75 97.01,262.40 92.75,259.92 ZM 196.70 260.37 C196.32,259.98 196.00,257.96 196.00,255.87 L 196.00 252.07 L 185.75 251.78 L 175.50 251.50 L 175.50 247.88 L 175.50 244.26 L 167.23 243.68 C162.68,243.36 158.52,242.82 157.98,242.49 C157.44,242.15 157.00,240.61 157.00,239.07 C157.00,236.74 156.48,236.15 154.00,235.65 C151.07,235.06 151.00,234.91 151.00,229.07 L 151.00 223.10 L 157.25 222.80 C163.06,222.52 163.52,222.32 163.85,220.00 C164.30,216.79 165.57,216.03 170.54,216.02 C174.24,216.00 174.67,215.72 175.54,212.75 C176.39,209.88 176.96,209.46 180.49,209.18 C184.77,208.83 185.96,207.77 185.98,204.30 C186.00,202.36 186.61,202.07 191.25,201.80 C196.34,201.51 196.51,201.40 196.81,198.33 L 197.11 195.17 L 203.81 194.81 C214.12,194.26 213.73,193.92 213.51,203.33 L 213.31 211.50 L 205.21 211.79 L 197.12 212.08 L 196.81 215.79 L 196.50 219.50 L 189.81 219.79 L 183.12 220.09 L 182.81 223.29 C182.53,226.22 182.17,226.53 178.69,226.81 C174.97,227.12 174.89,227.20 175.19,230.81 C175.50,234.45 175.56,234.50 180.25,234.80 C184.18,235.06 185.00,235.44 185.00,237.05 C185.00,238.68 185.71,239.00 189.30,239.00 C193.91,239.00 196.00,240.31 196.00,243.20 C196.00,244.78 196.96,245.00 203.88,245.00 C213.55,245.00 214.20,245.61 213.80,254.16 L 213.50 260.50 L 205.45 260.79 C201.03,260.95 197.09,260.76 196.70,260.37 ZM 287.91 258.29 C287.68,251.57 288.27,246.45 289.34,245.71 C289.98,245.26 292.58,245.12 295.13,245.39 C301.18,246.03 304.00,245.23 304.00,242.88 C304.00,241.29 304.77,241.00 309.05,241.00 C313.75,241.00 314.18,240.79 315.13,238.05 C316.05,235.43 316.67,235.07 320.83,234.80 C325.44,234.50 325.50,234.45 325.81,230.75 L 326.12 227.00 L 321.06 227.00 L 316.00 227.00 L 316.00 223.55 L 316.00 220.10 L 310.25 219.80 L 304.50 219.50 L 304.19 215.75 C303.89,212.12 303.76,212.00 300.02,212.00 C296.54,212.00 296.09,211.70 295.50,209.00 C294.93,206.40 294.40,206.00 291.54,206.00 C288.80,206.00 288.15,205.57 287.75,203.47 C287.48,202.08 287.56,199.49 287.92,197.72 L 288.58 194.50 L 296.54 194.50 L 304.50 194.50 L 305.43 198.25 C306.26,201.62 306.68,202.00 309.59,202.00 C314.59,202.00 316.00,202.90 316.00,206.11 C316.00,208.87 316.20,209.00 320.50,209.00 C324.97,209.00 325.00,209.03 325.00,212.46 L 325.00 215.92 L 333.25 216.21 C341.31,216.49 341.50,216.56 341.50,219.00 C341.50,221.17 342.03,221.57 345.50,222.00 L 349.50 222.50 L 349.80 228.69 L 350.09 234.87 L 346.30 235.19 C342.60,235.49 342.49,235.61 342.19,239.75 L 341.89 244.00 L 333.44 244.00 L 325.00 244.00 L 325.00 247.96 L 325.00 251.92 L 316.25 252.21 L 307.50 252.50 L 307.00 256.50 L 306.50 260.50 L 297.25 260.79 L 288.00 261.08 L 287.91 258.29 ZM 400.19 256.75 C400.49,252.61 400.60,252.49 404.50,252.00 C408.07,251.55 408.54,251.17 408.84,248.50 C409.30,244.45 410.69,243.00 414.12,243.00 C416.85,243.00 417.00,242.78 417.00,238.62 C417.00,236.22 417.29,232.82 417.64,231.07 C418.22,228.13 418.54,227.92 421.89,228.20 L 425.50 228.50 L 425.50 236.00 L 425.50 243.50 L 421.31 243.80 C417.28,244.10 417.10,244.25 416.81,247.72 C416.54,250.85 416.04,251.49 413.00,252.50 C410.49,253.34 409.40,254.35 409.15,256.08 C408.63,259.72 407.12,261.00 403.32,261.00 C399.90,261.00 399.89,260.98 400.19,256.75 ZM 64.86 225.75 C64.66,225.06 64.63,211.11 64.78,194.75 L 65.06 165.00 L 69.03 165.00 L 73.00 165.00 L 73.00 196.00 L 73.00 227.00 L 69.11 227.00 C66.85,227.00 65.06,226.47 64.86,225.75 ZM 427.71 226.38 C427.32,225.99 427.00,211.99 427.00,195.27 L 427.00 164.88 L 430.75 165.19 L 434.50 165.50 L 434.50 196.00 L 434.50 226.50 L 431.46 226.80 C429.79,226.96 428.11,226.77 427.71,226.38 ZM 240.81 160.29 C240.51,156.60 240.38,156.49 236.25,156.19 C232.71,155.94 231.91,155.48 231.40,153.44 C230.38,149.41 231.54,148.00 235.86,148.00 C240.01,148.00 241.00,149.07 241.00,153.58 C241.00,155.92 241.25,156.00 248.25,156.02 C256.82,156.03 258.27,156.73 257.83,160.61 L 257.50 163.50 L 249.31 163.79 L 241.13 164.08 L 240.81 160.29 ZM 417.46 161.68 C417.14,160.41 417.02,157.15 417.19,154.43 L 417.50 149.50 L 421.75 149.19 L 426.00 148.89 L 426.00 156.44 L 426.00 164.00 L 422.02 164.00 C418.69,164.00 417.94,163.62 417.46,161.68 ZM 258.77 154.75 C258.53,154.06 258.62,152.38 258.96,151.00 C259.46,148.98 260.29,148.44 263.30,148.19 C267.46,147.84 268.64,149.30 267.59,153.50 C267.06,155.63 266.39,156.00 263.09,156.00 C260.89,156.00 259.02,155.46 258.77,154.75 ZM 84.25 147.34 C83.56,147.06 83.00,145.34 83.00,143.52 C83.00,139.78 84.10,139.06 88.75,139.75 C91.66,140.18 92.00,140.57 92.00,143.50 C92.00,146.04 91.50,146.90 89.75,147.37 C87.18,148.06 86.02,148.05 84.25,147.34 ZM 223.75 147.23 C221.51,146.75 220.40,142.43 222.01,140.49 C224.79,137.14 231.46,139.79 230.84,143.99 C230.49,146.45 227.16,147.97 223.75,147.23 ZM 409.25 146.80 C408.66,146.09 408.02,144.15 407.84,142.50 C407.64,140.71 406.89,139.46 406.00,139.40 C405.17,139.35 403.26,139.24 401.75,139.15 C399.24,139.01 399.00,138.65 399.00,135.07 C399.00,132.01 399.45,130.99 401.00,130.50 C405.42,129.10 407.95,131.73 407.99,137.77 C408.00,139.67 408.39,139.94 410.43,139.43 C411.76,139.09 413.81,139.12 414.98,139.49 C416.73,140.05 417.06,140.83 416.81,143.83 C416.53,147.12 416.18,147.53 413.41,147.80 C411.72,147.97 409.85,147.52 409.25,146.80 ZM 268.00 143.62 C268.00,139.38 269.06,138.60 273.62,139.46 C276.84,140.06 277.09,140.37 276.81,143.31 C276.52,146.29 276.22,146.52 272.25,146.81 C268.00,147.11 268.00,147.11 268.00,143.62 ZM 92.78 137.84 C92.57,137.20 92.58,135.42 92.81,133.87 C93.25,130.83 95.75,129.47 99.00,130.50 C101.28,131.22 101.78,135.82 99.80,137.80 C98.27,139.33 93.29,139.36 92.78,137.84 ZM 212.25 138.34 C211.56,138.06 211.00,136.30 211.00,134.44 C211.00,131.62 211.44,130.93 213.57,130.39 C218.84,129.07 222.25,132.59 220.39,137.42 C219.80,138.96 215.10,139.49 212.25,138.34 ZM 278.00 134.56 L 278.00 130.00 L 282.56 130.00 L 287.11 130.00 L 286.81 134.25 C286.50,138.48 286.48,138.50 282.25,138.81 L 278.00 139.11 L 278.00 134.56 ZM 190.41 127.50 C189.17,122.55 190.15,122.00 200.35,122.00 C209.16,122.00 209.80,122.14 210.33,124.16 C210.64,125.35 210.45,127.15 209.91,128.16 C209.07,129.74 207.64,130.00 199.98,130.00 C191.28,130.00 191.02,129.93 190.41,127.50 ZM 375.85 127.25 C375.76,125.74 375.65,123.82 375.60,123.00 C375.51,121.71 370.83,121.43 342.00,121.00 L 308.50 120.50 L 308.19 116.75 L 307.88 113.00 L 342.03 113.00 L 376.17 113.00 L 375.84 117.25 L 375.50 121.50 L 386.75 121.78 C397.86,122.06 398.00,122.10 398.00,124.45 C398.00,129.78 397.54,130.00 386.39,130.00 L 376.00 130.00 L 375.85 127.25 Z" fill="rgb(254,254,254)"/>
</g>
</svg>